<?xml version="1.0" encoding="utf-8"?>
<!-- Generator: Adobe Illustrator 19.2.1, SVG Export Plug-In . SVG Version: 6.00 Build 0)  -->
<svg version="1.1" id="Layer_1" xmlns="http://www.w3.org/2000/svg" xmlns:xlink="http://www.w3.org/1999/xlink" x="0px" y="0px"
	 viewBox="0 0 1520.2 626.7" style="enable-background:new 0 0 1520.2 626.7;" xml:space="preserve">
<style type="text/css">
	.st0{fill:#FFFFFF;}
	.st1{font-family:'HelveticaNeue';}
	.st2{font-size:80px;}
	.st3{fill:none;stroke:#FFFFFF;stroke-width:7;stroke-miterlimit:10;}
	.st4{fill:#FFFFFF;stroke:#FFFFFF;stroke-width:7;stroke-miterlimit:10;}
</style>
<title>BPA</title>
<text transform="matrix(1 0 0 1 0 588.23)" class="st0 st1 st2">HO</text>
<text transform="matrix(1 0 0 1 1401.6899 588.23)" class="st0 st1 st2">OH</text>
<polygon class="st3" points="423,573.4 254.1,475.9 254.1,280.9 423,183.4 591.9,280.9 591.9,475.9 "/>
<polygon class="st3" points="1098.1,573.4 929.2,475.9 929.2,280.9 1098.1,183.4 1267,280.9 1267,475.9 "/>
<line class="st4" x1="297" y1="306.7" x2="423" y2="232.1"/>
<line class="st4" x1="297" y1="447.1" x2="423" y2="521.9"/>
<line class="st4" x1="546.8" y1="302.2" x2="546.8" y2="449.1"/>
<line class="st4" x1="973.5" y1="448.9" x2="973.1" y2="302.5"/>
<line class="st4" x1="1094.4" y1="520.2" x2="1222.8" y2="449.6"/>
<line class="st4" x1="1094.6" y1="230.4" x2="1221.2" y2="305"/>
<line class="st4" x1="254.1" y1="475.9" x2="138" y2="542.8"/>
<line class="st4" x1="1267" y1="475.9" x2="1383.6" y2="542.8"/>
<polyline class="st3" points="591.9,280.9 754.9,183.4 929.2,280.9 "/>
<polygon class="st0" points="838.8,0 878.2,24.6 766.6,190 754.9,183.4 "/>
<line class="st4" x1="644.2" y1="23.7" x2="681.4" y2="4"/>
<line class="st4" x1="661.1" y1="46" x2="691.3" y2="30.3"/>
<line class="st4" x1="675" y1="68.2" x2="701.2" y2="54.5"/>
<line class="st4" x1="690.5" y1="91.9" x2="712.8" y2="80.1"/>
<line class="st4" x1="706.5" y1="115.1" x2="726.7" y2="103.4"/>
<line class="st4" x1="724" y1="137.1" x2="739.3" y2="128.3"/>
<line class="st4" x1="740.1" y1="161.1" x2="752.4" y2="153.3"/>
</svg>
