<?xml version="1.0" encoding="utf-8"?>
<!-- Generator: Adobe Illustrator 19.2.1, SVG Export Plug-In . SVG Version: 6.00 Build 0)  -->
<svg version="1.1" id="clouds" xmlns="http://www.w3.org/2000/svg" xmlns:xlink="http://www.w3.org/1999/xlink" x="0px" y="0px"
	 viewBox="0 0 1781.1 451.4" style="enable-background:new 0 0 1781.1 451.4;" xml:space="preserve">
<style type="text/css">
	.st0{fill:#FFFFFF;}
</style>
<title>clouds</title>
<g>
	<g>
		<path class="st0" d="M519.5,184.5c-1.3-15.1-14.7-26.3-29.8-25l-164.3,14.4c-15.1,1.3-26.3,14.7-25,29.8s14.7,26.3,29.8,25
			l164.3-14.4C509.6,212.9,520.8,199.6,519.5,184.5z"/>
		<path class="st0" d="M642.4,263c-1.4-16-15.5-27.9-31.5-26.5l-187.4,16.4l71.3-6.2c-8.9,0.8-16.7-5.8-17.5-14.7
			c-0.8-8.9,5.8-16.7,14.7-17.5l-96.7,8.5c8.9-0.8,16.7,5.8,17.5,14.7c0.8,8.9-5.8,16.7-14.7,17.5l-6.4,0.6
			c-16,1.4-27.9,15.5-26.5,31.5s15.5,27.9,31.5,26.5L616,294.5C632,293.1,643.8,279,642.4,263z"/>
	</g>
	<path class="st0" d="M219.2,407.1c-1.3-15.1-14.7-26.3-29.8-25L25.1,396.5c-15.1,1.3-26.3,14.7-25,29.8c1.3,15.1,14.7,26.3,29.8,25
		l164.3-14.4C209.3,435.5,220.5,422.2,219.2,407.1z"/>
	<path class="st0" d="M1017.3,103.6c-1.4-16-15.5-27.9-31.5-26.5L869.7,87.3c-8.9,0.8-16.7-5.8-17.5-14.7
		c-0.8-8.9,5.8-16.7,14.7-17.5l-0.3,0l2.8-0.2c15.1-1.3,26.3-14.7,25-29.8s-14.7-26.3-29.8-25L700.3,14.5
		c-15.1,1.3-26.3,14.7-25,29.8s14.7,26.3,29.8,25l65.2-5.7c8.9-0.8,16.7,5.8,17.5,14.7c0.8,8.9-5.8,16.7-14.7,17.5l-6.4,0.6
		c-16,1.4-27.9,15.5-26.5,31.5c1.4,16,15.5,27.9,31.5,26.5l219.1-19.2C1006.8,133.7,1018.7,119.6,1017.3,103.6z"/>
	<path class="st0" d="M1781,248c-1.3-15.1-14.7-26.3-29.8-25l-65.2,5.7c-8.9,0.8-16.7-5.8-17.5-14.7c-0.8-8.9,5.8-16.7,14.7-17.5
		l6.4-0.6c16-1.4,27.9-15.5,26.5-31.5s-15.5-27.9-31.5-26.5l-109.5,9.6c-8.9,0.8-16.7-5.8-17.5-14.7c-0.8-8.9,5.8-16.7,14.7-17.5
		l12.9-1.1c16-1.4,27.9-15.5,26.5-31.5s-15.5-27.9-31.5-26.5l-219.1,19.2c-16,1.4-27.9,15.5-26.5,31.5c1.4,16,15.5,27.9,31.5,26.5
		l191.9-16.8l-82.3,7.2c8.9-0.8,16.7,5.8,17.5,14.7c0.8,8.9-5.8,16.7-14.7,17.5l92-8l-104.9,9.2c-16,1.4-27.9,15.5-26.5,31.5
		c1.4,16,15.5,27.9,31.5,26.5l116.1-10.2c8.9-0.8,16.7,5.8,17.5,14.7c0.8,8.9-5.8,16.7-14.7,17.5l0.3,0l-2.8,0.2
		c-15.1,1.3-26.3,14.7-25,29.8c1.3,15.1,14.7,26.3,29.8,25l164.3-14.4C1771.1,276.5,1782.3,263.2,1781,248z"/>
	<g>
		<path class="st0" d="M1311.9,376c-1.3-15.1-14.7-26.3-29.8-25l-224.5,19.6c-8.9,0.8-16.7-5.8-17.5-14.7
			c-0.8-8.9,5.8-16.7,14.7-17.5l-76.7,6.7c8.9-0.8,16.7,5.8,17.5,14.7c0.8,8.9-5.8,16.7-14.7,17.5l-22.4,2
			c-15.1,1.3-26.3,14.7-25,29.8c1.3,15.1,14.7,26.3,29.8,25l323.7-28.3C1302,404.5,1313.2,391.1,1311.9,376z"/>
		<path class="st0" d="M1120.6,348.9c0.8,8.9-5.8,16.7-14.7,17.5l86.7-7.6c-8.9,0.8-16.7-5.8-17.5-14.7c-0.8-8.9,5.8-16.7,14.7-17.5
			l10.8-0.9c16-1.4,27.9-15.5,26.5-31.5s-15.5-27.9-31.5-26.5l-318.7,27.9c-16,1.4-27.9,15.5-26.5,31.5s15.5,27.9,31.5,26.5
			l221.2-19.4C1111.9,333.5,1119.8,340,1120.6,348.9z"/>
	</g>
</g>
</svg>
