<svg id="Layer_1" data-name="Layer 1" xmlns="http://www.w3.org/2000/svg" viewBox="0 0 657.3 104.11"><defs><style>.cls-1{fill:#a0859a;}</style></defs><title>fish_kidn</title><path class="cls-1" d="M-135.44,805.17c-42.1-13.63-84-28.15-126.68-40a556.66,556.66,0,0,0-132.24-20.34c-44.18-1.43-88.71,0-132.82,2.67-43.71,2.64-87.64,7.76-130,19.35-44.17,12.1-86,31.33-122.27,59.45-5.55,4.31-4.53,13.86,0,18.38,5.48,5.48,12.82,4.32,18.38,0,63.18-49,145.31-65,223.21-70.49,43.12-3,86.64-4.34,129.87-3.68,42.78,0.65,84.59,5.49,126,16.26,47.12,12.25,93.25,28.53,139.55,43.52,6.68,2.16,14.19-2.53,16-9.08C-124.43,814.13-128.74,807.34-135.44,805.17Z" transform="translate(783.2 -744.22)"/></svg>