<svg id="Layer_1" data-name="Layer 1" xmlns="http://www.w3.org/2000/svg" viewBox="0 0 1006.29 525.41"><defs><style>.cls-1{fill:#e58fac;}.cls-2{fill:#f1f2f2;}</style></defs><title>fish_skeleton</title><path class="cls-1" d="M1110.38,221.27s0.42,0.64,1.2,2,1.83,3.23,3.19,5.7l2.16,4.11c0.78,1.5,1.54,3.14,2.4,4.9s1.73,3.64,2.61,5.63,1.82,4.09,2.77,6.3c1.78,4.42,3.82,9.24,5.63,14.4q1.42,3.86,2.85,8l2.74,8.39,1.35,4.33,1.26,4.41c0.87,3,1.63,6,2.44,9s1.48,6.13,2.18,9.23l2.06,9.36c0.61,3.13,1.31,6.26,2.14,9.38s1.77,6.24,2.57,9.34c1.61,6.2,3,12.36,3.25,18.34a69,69,0,0,1-1.95,17.2,95.55,95.55,0,0,1-5,15.21,82.33,82.33,0,0,1-6.43,12.57,92.57,92.57,0,0,1-6.75,9.43,69.41,69.41,0,0,1-5.34,5.9c-1.36,1.34-2.21,2-2.21,2a3.89,3.89,0,0,1-5.34-.38l-0.05-.06s-0.75-.83-1.93-2.34-2.8-3.73-4.54-6.49a100.65,100.65,0,0,1-5.51-9.83c-1.78-3.75-3.71-7.93-5.34-12.43-0.83-2.25-1.56-4.58-2.27-7s-1.25-4.88-1.87-7.41a59,59,0,0,1-1.83-15.85,61,61,0,0,1,.7-8.37c0.44-2.84,1.05-5.72,1.69-8.63a152.94,152.94,0,0,0,2.83-17.73l1.2-17.78c0.16-2.94.28-5.85,0.51-8.76l0.29-4.33,0.19-4.26,0.49-8.35,0.3-8,0.16-3.87,0.07-3.74,0.2-7.14c0-4.56.14-8.81,0.08-12.53s-0.05-7-.06-9.73l-0.17-6.25c0-1.42-.09-2.23-0.09-2.23a2.78,2.78,0,0,1,5.1-1.74Z" transform="translate(-146.92 -130.33)"/><path class="cls-1" d="M1046.93,189.23s0.43,0.64,1.21,2,1.84,3.23,3.2,5.7l2.17,4.1c0.78,1.5,1.54,3.14,2.41,4.89s1.74,3.63,2.62,5.62,1.83,4.09,2.78,6.3c1.79,4.42,3.84,9.23,5.66,14.39q1.43,3.86,2.87,8l2.76,8.38,1.36,4.33,1.27,4.41c0.87,3,1.64,6,2.46,9s1.5,6.13,2.2,9.23l2.08,9.35c0.61,3.13,1.33,6.26,2.16,9.38s1.78,6.23,2.59,9.33c1.62,6.19,3.06,12.35,3.29,18.33a69,69,0,0,1-1.91,17.2,95.54,95.54,0,0,1-5,15.22,82.33,82.33,0,0,1-6.4,12.59,92.58,92.58,0,0,1-6.73,9.44,69.41,69.41,0,0,1-5.33,5.91c-1.36,1.34-2.21,2-2.21,2a3.89,3.89,0,0,1-5.34-.37l-0.05-.06s-0.76-.82-1.94-2.34-2.8-3.72-4.56-6.48a100.65,100.65,0,0,1-5.53-9.82c-1.78-3.74-3.73-7.92-5.37-12.42-0.83-2.25-1.57-4.58-2.28-7s-1.26-4.87-1.89-7.4a59,59,0,0,1-1.86-15.85,61,61,0,0,1,.68-8.37c0.44-2.84,1-5.72,1.68-8.64a152.92,152.92,0,0,0,2.79-17.73l1.16-17.78c0.16-2.94.27-5.85,0.49-8.76l0.29-4.33,0.18-4.26,0.47-8.35,0.29-8,0.15-3.87,0.07-3.74,0.18-7.15c0-4.56.12-8.81,0.06-12.53s-0.06-7-.08-9.73l-0.19-6.25c0-1.42-.09-2.23-0.09-2.23a2.78,2.78,0,0,1,5.1-1.75Z" transform="translate(-146.92 -130.33)"/><path class="cls-1" d="M980.67,171.84s0.43,0.64,1.22,2,1.85,3.22,3.23,5.68l2.19,4.09c0.79,1.5,1.56,3.13,2.43,4.88s1.75,3.62,2.64,5.61,1.85,4.08,2.81,6.28c1.81,4.41,3.88,9.21,5.73,14.36q1.45,3.85,2.9,7.95l2.8,8.37,1.38,4.32,1.29,4.4c0.89,3,1.67,6,2.5,9s1.52,6.12,2.24,9.22l2.12,9.34c0.63,3.13,1.35,6.25,2.2,9.37s1.81,6.22,2.63,9.32c1.65,6.19,3.11,12.34,3.37,18.32a69,69,0,0,1-1.84,17.21,95.54,95.54,0,0,1-4.89,15.24,82.32,82.32,0,0,1-6.35,12.62,92.55,92.55,0,0,1-6.69,9.47,69.41,69.41,0,0,1-5.31,5.94c-1.35,1.35-2.2,2.06-2.2,2.06a3.89,3.89,0,0,1-5.34-.34l-0.05-.06s-0.76-.82-1.95-2.33-2.82-3.71-4.58-6.46a100.65,100.65,0,0,1-5.57-9.79c-1.8-3.73-3.76-7.9-5.42-12.39-0.84-2.25-1.59-4.57-2.31-7s-1.28-4.87-1.92-7.4A59,59,0,0,1,968,305.28a61,61,0,0,1,.64-8.37c0.42-2.84,1-5.72,1.64-8.64A152.93,152.93,0,0,0,973,270.52l1.09-17.78c0.15-2.94.24-5.86,0.45-8.76l0.27-4.33,0.16-4.26,0.43-8.35,0.25-8,0.14-3.87,0-3.74,0.15-7.15c0-4.56.09-8.81,0-12.53s-0.1-7-.12-9.73l-0.21-6.25c0-1.42-.1-2.23-0.1-2.23a2.78,2.78,0,0,1,5.09-1.77Z" transform="translate(-146.92 -130.33)"/><path class="cls-1" d="M915,150.88s0.45,0.63,1.27,1.93,1.94,3.17,3.38,5.59l2.29,4c0.83,1.48,1.64,3.09,2.56,4.82s1.85,3.58,2.79,5.54,2,4,3,6.21c1.92,4.36,4.13,9.11,6.1,14.21q1.55,3.82,3.11,7.87l3,8.29,1.49,4.29,1.41,4.37c1,2.93,1.82,5.93,2.74,8.94s1.68,6.08,2.48,9.16l2.37,9.28c0.71,3.11,1.52,6.21,2.45,9.31s2,6.17,2.87,9.25c1.81,6.14,3.44,12.25,3.85,18.22a69,69,0,0,1-1.38,17.26,95.55,95.55,0,0,1-4.48,15.36,82.32,82.32,0,0,1-6,12.78,92.57,92.57,0,0,1-6.44,9.64,69.4,69.4,0,0,1-5.15,6.07c-1.32,1.39-2.15,2.11-2.15,2.11a3.89,3.89,0,0,1-5.35-.2l-0.05-.05s-0.78-.8-2-2.28-2.92-3.64-4.75-6.34a100.66,100.66,0,0,1-5.83-9.64c-1.9-3.69-4-7.8-5.75-12.25-0.9-2.22-1.71-4.53-2.49-6.91s-1.41-4.83-2.11-7.34a59,59,0,0,1-2.35-15.78,61,61,0,0,1,.42-8.38c0.35-2.85.86-5.75,1.41-8.68a152.94,152.94,0,0,0,2.24-17.81l0.62-17.81c0.07-2.94.09-5.86,0.22-8.77l0.15-4.33,0.05-4.26,0.21-8.36,0-8,0-3.87,0-3.74,0-7.15c-0.15-4.55-.15-8.81-0.33-12.53s-0.28-7-.38-9.73L910,154.94c-0.08-1.42-.16-2.23-0.16-2.23a2.78,2.78,0,0,1,5-1.9Z" transform="translate(-146.92 -130.33)"/><path class="cls-1" d="M849.67,138.81s0.45,0.63,1.27,1.93,1.94,3.17,3.38,5.59l2.29,4c0.83,1.48,1.64,3.09,2.56,4.82s1.85,3.58,2.79,5.54,2,4,3,6.21c1.92,4.36,4.13,9.11,6.1,14.21q1.55,3.82,3.11,7.87l3,8.29,1.49,4.29,1.41,4.37c1,2.93,1.82,5.93,2.74,8.94s1.68,6.08,2.48,9.16l2.37,9.28c0.71,3.11,1.52,6.21,2.45,9.31s2,6.17,2.87,9.25c1.81,6.14,3.44,12.25,3.85,18.22a69,69,0,0,1-1.38,17.26,95.54,95.54,0,0,1-4.48,15.36,82.32,82.32,0,0,1-6,12.78,92.56,92.56,0,0,1-6.44,9.64,69.4,69.4,0,0,1-5.15,6.07c-1.32,1.39-2.15,2.11-2.15,2.11a3.89,3.89,0,0,1-5.35-.2l-0.05-.05s-0.78-.8-2-2.28-2.92-3.64-4.75-6.34a100.64,100.64,0,0,1-5.83-9.64c-1.9-3.69-4-7.8-5.75-12.25-0.9-2.22-1.71-4.53-2.49-6.91s-1.41-4.83-2.11-7.34a59,59,0,0,1-2.35-15.78,61,61,0,0,1,.42-8.38c0.35-2.85.86-5.75,1.41-8.68a152.93,152.93,0,0,0,2.24-17.81l0.62-17.81c0.07-2.94.09-5.86,0.22-8.77l0.15-4.33,0.05-4.26,0.21-8.36,0-8,0-3.87,0-3.74,0-7.15c-0.15-4.55-.15-8.81-0.33-12.53s-0.28-7-.38-9.73l-0.38-6.24c-0.08-1.42-.16-2.23-0.16-2.23a2.78,2.78,0,0,1,5-1.9Z" transform="translate(-146.92 -130.33)"/><path class="cls-1" d="M774.42,131.57s0.45,0.63,1.27,1.93,1.94,3.17,3.38,5.59l2.29,4c0.83,1.48,1.64,3.09,2.56,4.82s1.85,3.58,2.79,5.54,2,4,3,6.21c1.92,4.36,4.13,9.11,6.1,14.21q1.55,3.82,3.11,7.87l3,8.29,1.49,4.29,1.41,4.37c1,2.93,1.82,5.93,2.74,8.94s1.68,6.08,2.48,9.16l2.37,9.28c0.71,3.11,1.52,6.21,2.45,9.31s2,6.17,2.87,9.25c1.81,6.14,3.44,12.25,3.85,18.22a69,69,0,0,1-1.38,17.26,95.54,95.54,0,0,1-4.48,15.36,82.33,82.33,0,0,1-6,12.78,92.57,92.57,0,0,1-6.44,9.64,69.41,69.41,0,0,1-5.15,6.07c-1.32,1.39-2.15,2.11-2.15,2.11a3.89,3.89,0,0,1-5.35-.2l-0.05-.05s-0.78-.8-2-2.28-2.92-3.64-4.75-6.34a100.66,100.66,0,0,1-5.83-9.64c-1.9-3.69-4-7.8-5.75-12.25-0.9-2.22-1.71-4.53-2.49-6.91s-1.41-4.83-2.11-7.34a59,59,0,0,1-2.35-15.78,61,61,0,0,1,.42-8.38c0.35-2.85.86-5.75,1.41-8.68a152.94,152.94,0,0,0,2.24-17.81l0.62-17.81c0.07-2.94.09-5.86,0.22-8.77l0.15-4.33,0.05-4.26,0.21-8.36,0-8,0-3.87,0-3.74,0-7.15c-0.15-4.55-.15-8.81-0.33-12.53s-0.28-7-.38-9.73l-0.38-6.24c-0.08-1.42-.16-2.23-0.16-2.23a2.78,2.78,0,0,1,5-1.9Z" transform="translate(-146.92 -130.33)"/><path class="cls-1" d="M705,131.81s0.45,0.63,1.27,1.93,1.94,3.17,3.38,5.59l2.29,4c0.83,1.48,1.64,3.09,2.56,4.82s1.85,3.58,2.79,5.54,2,4,3,6.21c1.92,4.36,4.13,9.11,6.1,14.21q1.55,3.82,3.11,7.87l3,8.29,1.49,4.29,1.41,4.37c1,2.93,1.82,5.93,2.74,8.94s1.68,6.08,2.48,9.16l2.37,9.28c0.71,3.11,1.52,6.21,2.45,9.31s2,6.17,2.87,9.25c1.81,6.14,3.44,12.25,3.85,18.22a69,69,0,0,1-1.38,17.26,95.55,95.55,0,0,1-4.48,15.36,82.33,82.33,0,0,1-6,12.78,92.56,92.56,0,0,1-6.44,9.64,69.4,69.4,0,0,1-5.15,6.07c-1.32,1.39-2.15,2.11-2.15,2.11a3.89,3.89,0,0,1-5.35-.2l-0.05-.05s-0.78-.8-2-2.28-2.92-3.64-4.75-6.34a100.64,100.64,0,0,1-5.83-9.64c-1.9-3.69-4-7.8-5.75-12.25-0.9-2.22-1.71-4.53-2.49-6.91s-1.41-4.83-2.11-7.34a59,59,0,0,1-2.35-15.78,61,61,0,0,1,.42-8.38c0.35-2.85.86-5.75,1.41-8.68a152.93,152.93,0,0,0,2.24-17.81l0.62-17.81c0.07-2.94.09-5.86,0.22-8.77l0.15-4.33,0.05-4.26,0.21-8.36,0-8,0-3.87,0-3.74,0-7.15c-0.15-4.55-.15-8.81-0.33-12.53s-0.28-7-.38-9.73L700,135.87c-0.08-1.42-.16-2.23-0.16-2.23a2.78,2.78,0,0,1,5-1.9Z" transform="translate(-146.92 -130.33)"/><path class="cls-1" d="M626.12,141.47s0.48,0.6,1.37,1.86,2.11,3.06,3.68,5.4l2.51,3.9c0.91,1.43,1.81,3,2.82,4.67s2,3.47,3.09,5.38,2.18,3.92,3.31,6c2.16,4.25,4.62,8.86,6.88,13.85q1.76,3.72,3.54,7.68l3.47,8.11,1.73,4.2,1.65,4.28c1.12,2.87,2.15,5.81,3.23,8.78s2,6,3,9l2.88,9.14c0.88,3.06,1.86,6.12,3,9.16s2.31,6.06,3.38,9.07c2.15,6,4.11,12,4.86,18a69,69,0,0,1-.42,17.31,95.54,95.54,0,0,1-3.62,15.59,82.32,82.32,0,0,1-5.3,13.09,92.56,92.56,0,0,1-5.9,10,69.4,69.4,0,0,1-4.8,6.35c-1.24,1.46-2,2.23-2,2.23a3.89,3.89,0,0,1-5.35.1l-0.06-.05s-0.82-.76-2.13-2.16-3.11-3.47-5.1-6.07a100.64,100.64,0,0,1-6.35-9.31c-2.1-3.57-4.39-7.57-6.42-11.91-1-2.17-2-4.43-2.87-6.76s-1.68-4.75-2.52-7.21a59,59,0,0,1-3.22-15.63,61,61,0,0,1,0-8.39c0.19-2.86.54-5.79,0.93-8.75a153,153,0,0,0,1.25-17.91l-0.37-17.81c-0.1-2.94-.24-5.86-0.27-8.77l-0.09-4.33-0.18-4.26-0.25-8.36-0.4-8-0.18-3.87-0.26-3.73-0.44-7.13c-0.4-4.54-.63-8.79-1-12.49s-0.67-7-.92-9.69l-0.72-6.21c-0.16-1.42-.28-2.21-0.28-2.21a2.78,2.78,0,0,1,4.93-2.18Z" transform="translate(-146.92 -130.33)"/><path class="cls-1" d="M554.56,175s0.45,0.57,1.29,1.74,2,2.86,3.45,5.05l2.35,3.65c0.85,1.34,1.69,2.8,2.64,4.37s1.91,3.25,2.89,5,2,3.66,3.1,5.64c2,4,4.33,8.29,6.44,13q1.65,3.48,3.32,7.19l3.25,7.59,1.62,3.93,1.54,4c1.05,2.69,2,5.44,3,8.21s1.89,5.59,2.79,8.42l2.69,8.55c0.85,2.86,1.73,5.73,2.77,8.57s2.16,5.67,3.16,8.49c2,5.64,3.85,11.26,4.55,16.82a64.58,64.58,0,0,1-.4,16.19A89.38,89.38,0,0,1,601.63,326a77,77,0,0,1-5,12.25,86.59,86.59,0,0,1-5.52,9.34,64.93,64.93,0,0,1-4.49,5.94c-1.16,1.36-1.9,2.08-1.9,2.08a3.64,3.64,0,0,1-5,.09l-0.05,0s-0.77-.71-2-2-2.91-3.24-4.77-5.68a94.15,94.15,0,0,1-5.94-8.71c-2-3.34-4.11-7.08-6-11.14-1-2-1.84-4.14-2.69-6.32s-1.57-4.44-2.35-6.75a55.23,55.23,0,0,1-3-14.62,57.08,57.08,0,0,1,0-7.85c0.18-2.68.51-5.41,0.87-8.18a143.07,143.07,0,0,0,1.17-16.75L554.59,251c-0.09-2.75-.22-5.48-0.25-8.2l-0.08-4.06-0.17-4-0.24-7.82-0.38-7.48-0.17-3.62-0.24-3.49-0.41-6.67c-0.37-4.25-.59-8.22-1-11.69s-0.63-6.53-.86-9.07l-0.68-5.81c-0.15-1.32-.27-2.07-0.27-2.07a2.6,2.6,0,0,1,4.61-2Z" transform="translate(-146.92 -130.33)"/><path class="cls-1" d="M478.13,200.83s0.49,0.53,1.4,1.65,2.16,2.72,3.78,4.81l2.59,3.48c0.94,1.28,1.88,2.68,2.92,4.18s2.13,3.11,3.22,4.82,2.28,3.52,3.47,5.42c2.28,3.83,4.87,8,7.29,12.49q1.88,3.37,3.79,6.95l3.75,7.36,1.87,3.81,1.81,3.9c1.23,2.61,2.37,5.29,3.56,8s2.26,5.45,3.35,8.22l3.26,8.35c1,2.8,2.11,5.6,3.34,8.36s2.54,5.51,3.73,8.26c2.38,5.5,4.59,11,5.66,16.48a64.58,64.58,0,0,1,.69,16.18,89.38,89.38,0,0,1-2.41,14.78,77,77,0,0,1-4.12,12.55,86.59,86.59,0,0,1-4.88,9.69,64.92,64.92,0,0,1-4.09,6.23c-1.07,1.44-1.75,2.21-1.75,2.21a3.64,3.64,0,0,1-5,.42l-0.06,0s-0.82-.65-2.12-1.89-3.12-3-5.14-5.34a94.15,94.15,0,0,1-6.51-8.29c-2.18-3.21-4.58-6.79-6.74-10.71-1.09-2-2.11-4-3.1-6.13s-1.86-4.33-2.8-6.58a55.23,55.23,0,0,1-4-14.39,57.08,57.08,0,0,1-.57-7.83c0-2.68.14-5.44,0.32-8.22a143.07,143.07,0,0,0,0-16.79l-1.46-16.6c-0.27-2.74-.59-5.45-0.8-8.17l-0.35-4-0.44-4-0.76-7.78L480,245.19l-0.41-3.6-0.47-3.47-0.85-6.63c-0.66-4.21-1.14-8.16-1.74-11.6s-1.06-6.48-1.46-9L474,205.16c-0.23-1.31-.4-2-0.4-2a2.6,2.6,0,0,1,4.46-2.34Z" transform="translate(-146.92 -130.33)"/><path class="cls-1" d="M426.75,268.41s0.4,0.46,1.16,1.42,1.78,2.35,3.11,4.15l2.13,3c0.77,1.1,1.54,2.31,2.4,3.6,1.72,2.58,3.51,5.55,5.48,8.82s4,6.87,6,10.74q1.53,2.89,3.08,6l3,6.31c2.06,4.31,3.94,8.82,5.85,13.45,1,2.31,1.81,4.67,2.69,7l2.61,7.14c0.83,2.4,1.68,4.79,2.67,7.16s2,4.72,3,7.08a69.37,69.37,0,0,1,4.49,14.09,54.8,54.8,0,0,1,.28,13.74,75.85,75.85,0,0,1-2.32,12.49,63.27,63.27,0,0,1-3.75,10.57,70,70,0,0,1-4.31,8.13,47.35,47.35,0,0,1-5.11,7,3.09,3.09,0,0,1-4.25.26l0,0a54.78,54.78,0,0,1-6-6.27,75.54,75.54,0,0,1-5.35-7.15,105.75,105.75,0,0,1-5.53-9.21c-0.89-1.68-1.71-3.44-2.52-5.26S434,389,433.26,387a46.86,46.86,0,0,1-3.11-12.28,49.11,49.11,0,0,1-.33-6.66c0-2.28.22-4.61,0.42-7a121.41,121.41,0,0,0,.36-14.25l-0.93-14.11c-0.18-2.33-.4-4.64-0.52-6.94l-0.22-3.43-0.3-3.37-0.5-6.62-0.6-6.33c-0.18-2.07-.38-4.08-0.62-6l-0.6-5.64c-0.48-3.59-.82-6.95-1.25-9.87S424.27,279,424,276.9l-0.8-4.9c-0.17-1.12-.3-1.75-0.3-1.75a2.21,2.21,0,0,1,3.83-1.9Z" transform="translate(-146.92 -130.33)"/><path class="cls-1" d="M357.32,311.12s0.45,0.41,1.32,1.27,2.06,2.12,3.59,3.74l2.48,2.72c0.9,1,1.81,2.11,2.82,3.28,2,2.35,4.16,5.08,6.51,8.09s4.79,6.33,7.21,9.93q1.87,2.68,3.79,5.55l3.79,5.89c2.57,4,5,8.28,7.44,12.64,1.24,2.17,2.37,4.41,3.52,6.66l3.46,6.77c1.11,2.28,2.25,4.55,3.52,6.78s2.61,4.44,3.84,6.66a69.37,69.37,0,0,1,6.17,13.44,54.8,54.8,0,0,1,1.95,13.6,75.85,75.85,0,0,1-.78,12.68,63.28,63.28,0,0,1-2.44,11,70,70,0,0,1-3.29,8.59A47.35,47.35,0,0,1,408,458a3.09,3.09,0,0,1-4.19.77l0,0a54.78,54.78,0,0,1-6.74-5.49,75.53,75.53,0,0,1-6.18-6.45,105.75,105.75,0,0,1-6.61-8.48c-1.08-1.56-2.12-3.21-3.14-4.91s-1.94-3.5-2.92-5.32a46.86,46.86,0,0,1-4.58-11.81,49.11,49.11,0,0,1-1.14-6.57c-0.23-2.27-.34-4.6-0.43-7a121.41,121.41,0,0,0-1.38-14.18L368,374.66c-0.46-2.29-1-4.55-1.36-6.83L366,364.45l-0.7-3.31-1.3-6.51-1.37-6.21c-0.43-2-.87-4-1.34-5.89L360,337c-0.91-3.5-1.65-6.79-2.44-9.65s-1.44-5.38-2-7.47l-1.38-4.77c-0.31-1.09-.51-1.7-0.51-1.7a2.21,2.21,0,0,1,3.57-2.35Z" transform="translate(-146.92 -130.33)"/><path class="cls-1" d="M313.93,370.71s0.36,0.32,1,1,1.62,1.67,2.83,3,2.62,2.87,4.18,4.74,3.28,4,5.14,6.38,3.78,5,5.69,7.84q1.47,2.12,3,4.38l3,4.65c2,3.17,3.93,6.53,5.87,10,1,1.72,1.87,3.48,2.78,5.25l2.73,5.34c1.7,3.61,3.79,7.11,5.81,10.6a54.73,54.73,0,0,1,4.87,10.6,43.23,43.23,0,0,1,1.53,10.73,59.84,59.84,0,0,1-.62,10,50.93,50.93,0,0,1-1.92,8.64,55.22,55.22,0,0,1-2.59,6.78,39.85,39.85,0,0,1-2.32,4.42c-0.61,1-1,1.58-1,1.58a2.42,2.42,0,0,1-3.3.61l0,0s-0.58-.38-1.53-1.12a45.16,45.16,0,0,1-3.79-3.21,59.6,59.6,0,0,1-4.88-5.09c-1.66-2-3.52-4.21-5.21-6.69-0.86-1.23-1.67-2.53-2.48-3.88s-1.53-2.76-2.3-4.19a37,37,0,0,1-3.61-9.32A49.37,49.37,0,0,1,325.55,443a95.78,95.78,0,0,0-1.09-11.19l-2.08-11c-0.79-3.59-1.35-7.23-2.13-10.66l-1-5.13-1.08-4.9c-0.34-1.6-.68-3.16-1.06-4.65l-1-4.36c-0.72-2.76-1.3-5.36-1.93-7.61s-1.14-4.24-1.57-5.89l-1.09-3.76c-0.24-.86-0.41-1.34-0.41-1.34a1.74,1.74,0,0,1,2.82-1.86Z" transform="translate(-146.92 -130.33)"/><path class="cls-1" d="M261.31,386.56s0.36,0.32,1,1,1.62,1.67,2.83,3,2.62,2.87,4.18,4.74,3.28,4,5.14,6.38,3.78,5,5.69,7.84q1.47,2.12,3,4.38l3,4.65c2,3.17,3.93,6.53,5.87,10,1,1.72,1.87,3.48,2.78,5.25l2.73,5.34c1.7,3.61,3.79,7.11,5.81,10.6a54.73,54.73,0,0,1,4.87,10.6A43.23,43.23,0,0,1,309.76,471a59.84,59.84,0,0,1-.62,10,50.93,50.93,0,0,1-1.92,8.64,55.22,55.22,0,0,1-2.59,6.78,39.84,39.84,0,0,1-2.32,4.42c-0.61,1-1,1.58-1,1.58a2.42,2.42,0,0,1-3.3.61l0,0s-0.58-.38-1.53-1.12a45.16,45.16,0,0,1-3.79-3.21,59.6,59.6,0,0,1-4.88-5.09c-1.66-2-3.52-4.21-5.21-6.69-0.86-1.23-1.67-2.53-2.48-3.88s-1.53-2.76-2.3-4.19a37,37,0,0,1-3.61-9.32,49.37,49.37,0,0,1-1.24-10.68,95.78,95.78,0,0,0-1.09-11.19l-2.08-11c-0.79-3.59-1.35-7.23-2.13-10.66l-1-5.13-1.08-4.9c-0.34-1.6-.68-3.16-1.06-4.65l-1-4.36c-0.72-2.76-1.3-5.36-1.93-7.61s-1.14-4.24-1.57-5.89l-1.09-3.76c-0.24-.86-0.41-1.34-0.41-1.34a1.74,1.74,0,0,1,2.82-1.86Z" transform="translate(-146.92 -130.33)"/><path class="cls-1" d="M217.8,423.69l0.81,0.73c0.55,0.49,1.27,1.21,2.22,2.15s2.05,2.09,3.27,3.46,2.6,2.92,4.06,4.66,3,3.66,4.5,5.75q1.17,1.56,2.37,3.22l2.38,3.42c1.61,2.34,3.14,4.82,4.69,7.36s3,5.2,4.43,7.84,3,5.26,4.66,7.83c0.76,1.3,1.55,2.59,2.22,3.89a31.36,31.36,0,0,1,1.73,4,32.59,32.59,0,0,1,1.44,8,45.12,45.12,0,0,1-.2,7.55,39.17,39.17,0,0,1-1.22,6.56,41.63,41.63,0,0,1-1.77,5.18,30,30,0,0,1-1.63,3.39c-0.43.79-.72,1.22-0.72,1.22a1.83,1.83,0,0,1-2.47.55l0,0s-0.45-.27-1.18-0.8a34,34,0,0,1-2.94-2.32,44.93,44.93,0,0,1-3.81-3.7c-1.31-1.45-2.76-3.08-4.11-4.9-0.68-.91-1.33-1.86-2-2.85s-1.23-2-1.85-3.1a27.88,27.88,0,0,1-3-6.93,30.82,30.82,0,0,1-.82-3.88c-0.19-1.34-.28-2.73-0.4-4.13a72.22,72.22,0,0,0-1.12-8.4l-1.86-8.2c-0.69-2.68-1.21-5.41-1.89-8l-0.91-3.84-0.94-3.66c-0.3-1.2-.6-2.36-0.92-3.47L220,439c-0.62-2.06-1.11-4-1.64-5.69L217,428.94l-0.92-2.8-0.34-1,0,0A1.31,1.31,0,0,1,217.8,423.69Z" transform="translate(-146.92 -130.33)"/><path class="cls-1" d="M1002.07,636.8s0.16-.79.37-2.2l1-6.18c0.36-2.69.85-5.92,1.31-9.65s0.95-7.92,1.53-12.44l0.72-7.11,0.41-3.72,0.34-3.86,0.73-8,0.59-8.34,0.36-4.25,0.26-4.33c0.15-2.91.41-5.81,0.62-8.75l1.1-17.78a152.93,152.93,0,0,0-.52-17.94c-0.26-3-.5-5.91-0.57-8.78a61,61,0,0,1,.39-8.39,59,59,0,0,1,3.85-15.49c0.94-2.43,1.83-4.81,2.81-7.11s2-4.51,3.14-6.64c2.2-4.25,4.65-8.15,6.9-11.64a100.63,100.63,0,0,1,6.73-9c2.09-2.52,4-4.5,5.34-5.85s2.22-2.08,2.22-2.08l0.05,0a3.9,3.9,0,0,1,5.35.31s0.76,0.8,1.93,2.31a69.4,69.4,0,0,1,4.54,6.54,92.57,92.57,0,0,1,5.49,10.22,82.32,82.32,0,0,1,4.76,13.3,95.55,95.55,0,0,1,3,15.72,69,69,0,0,1-.28,17.31c-1,5.9-3.19,11.83-5.59,17.77-1.19,3-2.56,5.94-3.75,8.93s-2.33,6-3.33,9l-3.25,9c-1.09,3-2.14,6-3.35,8.88s-2.34,5.81-3.58,8.64l-1.82,4.21-1.9,4.12-3.8,8q-1.94,3.88-3.85,7.53c-2.46,4.89-5.11,9.4-7.44,13.56-1.22,2.07-2.42,4-3.55,5.89s-2.23,3.62-3.31,5.25-2,3.16-3,4.55l-2.67,3.79c-1.66,2.28-2.92,4-3.9,5.24s-1.45,1.8-1.45,1.8l-0.05.06A2.78,2.78,0,0,1,1002.07,636.8Z" transform="translate(-146.92 -130.33)"/><path class="cls-1" d="M940.9,613.84s0.16-.79.37-2.2l1-6.18c0.36-2.69.85-5.92,1.31-9.65s0.95-7.92,1.53-12.44l0.72-7.11,0.41-3.72,0.34-3.86,0.73-8,0.59-8.34,0.36-4.25,0.26-4.33c0.15-2.91.41-5.81,0.62-8.75l1.1-17.78a152.94,152.94,0,0,0-.52-17.94c-0.26-3-.5-5.91-0.57-8.78a61,61,0,0,1,.39-8.39,59,59,0,0,1,3.85-15.49c0.94-2.43,1.83-4.81,2.81-7.11s2-4.51,3.14-6.64c2.2-4.25,4.65-8.15,6.9-11.64a100.64,100.64,0,0,1,6.73-9c2.09-2.52,4-4.5,5.34-5.85s2.22-2.08,2.22-2.08l0.05,0a3.9,3.9,0,0,1,5.35.31s0.76,0.8,1.93,2.31a69.41,69.41,0,0,1,4.54,6.54,92.57,92.57,0,0,1,5.49,10.22,82.33,82.33,0,0,1,4.76,13.3,95.54,95.54,0,0,1,3,15.72,69,69,0,0,1-.28,17.31c-1,5.9-3.19,11.83-5.59,17.77-1.19,3-2.56,5.94-3.75,8.93s-2.33,6-3.33,9l-3.25,9c-1.09,3-2.14,6-3.35,8.88s-2.34,5.81-3.58,8.64l-1.82,4.21-1.9,4.12-3.8,8q-1.94,3.88-3.85,7.53c-2.46,4.89-5.11,9.4-7.44,13.56-1.22,2.07-2.42,4-3.55,5.89s-2.23,3.62-3.31,5.25-2,3.16-3,4.55l-2.67,3.79c-1.66,2.28-2.92,4-3.9,5.24s-1.45,1.8-1.45,1.8l-0.05.06A2.78,2.78,0,0,1,940.9,613.84Z" transform="translate(-146.92 -130.33)"/><path class="cls-1" d="M881,587.86s0.16-.79.37-2.2l1-6.18c0.36-2.69.85-5.92,1.31-9.65s0.95-7.92,1.53-12.44l0.72-7.11,0.41-3.72,0.34-3.86,0.73-8,0.59-8.34,0.36-4.25,0.26-4.33c0.15-2.91.41-5.81,0.62-8.75l1.1-17.78a152.93,152.93,0,0,0-.52-17.94c-0.26-3-.5-5.91-0.57-8.78a61,61,0,0,1,.39-8.39,59,59,0,0,1,3.85-15.49c0.94-2.43,1.83-4.81,2.81-7.11s2-4.51,3.14-6.64c2.2-4.25,4.65-8.15,6.9-11.64a100.64,100.64,0,0,1,6.73-9c2.09-2.52,4-4.5,5.34-5.85s2.22-2.08,2.22-2.08l0.05,0a3.9,3.9,0,0,1,5.35.31s0.76,0.8,1.93,2.31a69.4,69.4,0,0,1,4.54,6.54A92.57,92.57,0,0,1,938,417.68a82.32,82.32,0,0,1,4.76,13.3,95.54,95.54,0,0,1,3,15.72,69,69,0,0,1-.28,17.31c-1,5.9-3.19,11.83-5.59,17.77-1.19,3-2.56,5.94-3.75,8.93s-2.33,6-3.33,9l-3.25,9c-1.09,3-2.14,6-3.35,8.88s-2.34,5.81-3.58,8.64l-1.82,4.21-1.9,4.12-3.8,8q-1.94,3.88-3.85,7.53c-2.46,4.89-5.11,9.4-7.44,13.56-1.22,2.07-2.42,4-3.55,5.89s-2.23,3.62-3.31,5.25-2,3.16-3,4.55l-2.67,3.79c-1.66,2.28-2.92,4-3.9,5.24s-1.45,1.8-1.45,1.8l-0.05.06A2.78,2.78,0,0,1,881,587.86Z" transform="translate(-146.92 -130.33)"/><path class="cls-1" d="M813.83,572.49s0.16-.79.37-2.2l1-6.18c0.36-2.69.85-5.92,1.31-9.65s0.95-7.92,1.53-12.44l0.72-7.11,0.41-3.72,0.34-3.86,0.73-8,0.59-8.34,0.36-4.25,0.26-4.33c0.15-2.91.41-5.81,0.62-8.75l1.1-17.78a152.94,152.94,0,0,0-.52-17.94c-0.26-3-.5-5.91-0.57-8.78a61,61,0,0,1,.39-8.39,59,59,0,0,1,3.85-15.49c0.94-2.43,1.83-4.81,2.81-7.11s2-4.51,3.14-6.64c2.2-4.25,4.65-8.15,6.9-11.64a100.64,100.64,0,0,1,6.73-9c2.09-2.52,4-4.5,5.34-5.85s2.22-2.08,2.22-2.08l0.05,0a3.9,3.9,0,0,1,5.35.31s0.76,0.8,1.93,2.31a69.41,69.41,0,0,1,4.54,6.54,92.57,92.57,0,0,1,5.49,10.22,82.33,82.33,0,0,1,4.76,13.3,95.54,95.54,0,0,1,3,15.72,69,69,0,0,1-.28,17.31c-1,5.9-3.19,11.83-5.59,17.77-1.19,3-2.56,5.94-3.75,8.93s-2.33,6-3.33,9l-3.25,9c-1.09,3-2.14,6-3.35,8.88s-2.34,5.81-3.58,8.64l-1.82,4.21-1.9,4.12-3.8,8q-1.94,3.88-3.85,7.53c-2.46,4.89-5.11,9.4-7.44,13.56-1.22,2.07-2.42,4-3.55,5.89s-2.23,3.62-3.31,5.25-2,3.16-3,4.55l-2.67,3.79c-1.66,2.28-2.92,4-3.9,5.24s-1.45,1.8-1.45,1.8l-0.05.06A2.78,2.78,0,0,1,813.83,572.49Z" transform="translate(-146.92 -130.33)"/><path class="cls-1" d="M761.13,567.94s0.07-.81.13-2.23l0.29-6.25c0.06-2.72.19-6,.24-9.73s0.07-8,.15-12.53l-0.06-7.15v-3.74l-0.09-3.87-0.16-8-0.33-8.35-0.11-4.26L761,497.49c-0.18-2.91-.24-5.82-0.35-8.76l-0.87-17.79a152.94,152.94,0,0,0-2.5-17.77c-0.59-2.93-1.14-5.82-1.54-8.66a61,61,0,0,1-.54-8.38,59,59,0,0,1,2.12-15.82c0.67-2.52,1.29-5,2-7.37s1.53-4.71,2.39-6.94c1.71-4.47,3.72-8.62,5.57-12.33a100.64,100.64,0,0,1,5.69-9.73c1.8-2.73,3.44-4.91,4.66-6.41s2-2.31,2-2.31l0,0a3.9,3.9,0,0,1,5.35-.29s0.84,0.72,2.18,2.08a69.39,69.39,0,0,1,5.23,6,92.56,92.56,0,0,1,6.58,9.55,82.32,82.32,0,0,1,6.2,12.69,95.54,95.54,0,0,1,4.7,15.3,69,69,0,0,1,1.63,17.23c-0.33,6-1.87,12.11-3.59,18.27-0.86,3.09-1.89,6.18-2.74,9.29s-1.65,6.22-2.31,9.34l-2.23,9.32c-0.75,3.09-1.47,6.16-2.35,9.19s-1.69,6-2.61,9l-1.34,4.39-1.43,4.31-2.9,8.34q-1.5,4.07-3,7.91c-1.9,5.13-4,9.91-5.9,14.29-1,2.19-2,4.27-2.88,6.25s-1.82,3.84-2.71,5.58-1.68,3.36-2.49,4.85l-2.23,4.07c-1.4,2.45-2.46,4.33-3.3,5.64s-1.24,1.95-1.24,1.95l0,0.07A2.78,2.78,0,0,1,761.13,567.94Z" transform="translate(-146.92 -130.33)"/><path class="cls-1" d="M697,566.81s0.07-.81.13-2.23l0.29-6.25c0.06-2.72.19-6,.24-9.73s0.07-8,.15-12.53l-0.06-7.15q0-1.84,0-3.74l-0.09-3.87-0.16-8L697.13,505,697,500.7l-0.22-4.33c-0.18-2.91-.24-5.82-0.35-8.76l-0.87-17.79a152.93,152.93,0,0,0-2.5-17.77c-0.59-2.93-1.14-5.82-1.54-8.66A61,61,0,0,1,691,435a59,59,0,0,1,2.12-15.82c0.67-2.52,1.29-5,2-7.37s1.53-4.71,2.39-6.94c1.71-4.47,3.72-8.62,5.57-12.33a100.64,100.64,0,0,1,5.69-9.73c1.8-2.73,3.44-4.91,4.66-6.41s2-2.31,2-2.31l0,0a3.9,3.9,0,0,1,5.35-.29s0.84,0.72,2.18,2.08a69.41,69.41,0,0,1,5.23,6,92.57,92.57,0,0,1,6.58,9.55,82.32,82.32,0,0,1,6.2,12.69,95.54,95.54,0,0,1,4.7,15.3,69,69,0,0,1,1.63,17.23c-0.33,6-1.87,12.11-3.59,18.27-0.86,3.09-1.89,6.18-2.74,9.29s-1.65,6.22-2.31,9.34l-2.23,9.32c-0.75,3.09-1.47,6.16-2.35,9.19s-1.69,6-2.61,9l-1.34,4.39-1.43,4.31-2.9,8.34q-1.5,4.07-3,7.91c-1.9,5.13-4,9.91-5.9,14.29-1,2.19-2,4.27-2.88,6.25s-1.82,3.84-2.71,5.58-1.68,3.36-2.49,4.85L706.62,561c-1.4,2.45-2.46,4.33-3.3,5.64s-1.24,1.95-1.24,1.95l0,0.07A2.78,2.78,0,0,1,697,566.81Z" transform="translate(-146.92 -130.33)"/><path class="cls-1" d="M632.81,575.94s0.07-.81.13-2.23l0.29-6.25c0.06-2.72.19-6,.24-9.73s0.07-8,.15-12.53l-0.06-7.15v-3.74l-0.09-3.87-0.16-8L633,514.08l-0.11-4.26-0.22-4.33c-0.18-2.91-.24-5.82-0.35-8.76l-0.87-17.79a152.93,152.93,0,0,0-2.5-17.77c-0.59-2.93-1.14-5.82-1.54-8.66a61,61,0,0,1-.54-8.38A59,59,0,0,1,629,428.3c0.67-2.52,1.29-5,2-7.37s1.53-4.71,2.39-6.94c1.71-4.47,3.72-8.62,5.57-12.33a100.64,100.64,0,0,1,5.69-9.73c1.8-2.73,3.44-4.91,4.66-6.41s2-2.31,2-2.31l0,0a3.9,3.9,0,0,1,5.35-.29s0.84,0.72,2.18,2.08a69.41,69.41,0,0,1,5.23,6,92.57,92.57,0,0,1,6.58,9.55,82.32,82.32,0,0,1,6.2,12.69,95.54,95.54,0,0,1,4.7,15.3,69,69,0,0,1,1.63,17.23c-0.33,6-1.87,12.11-3.59,18.27-0.86,3.09-1.89,6.18-2.74,9.29s-1.65,6.22-2.31,9.34l-2.23,9.32c-0.75,3.09-1.47,6.16-2.35,9.19s-1.69,6-2.61,9L666,514.51l-1.43,4.31-2.9,8.34q-1.5,4.07-3,7.91c-1.9,5.13-4,9.91-5.9,14.29-1,2.19-2,4.27-2.88,6.25s-1.82,3.84-2.71,5.58-1.68,3.36-2.49,4.85l-2.23,4.07c-1.4,2.45-2.46,4.33-3.3,5.64s-1.24,1.95-1.24,1.95l0,0.07A2.78,2.78,0,0,1,632.81,575.94Z" transform="translate(-146.92 -130.33)"/><path class="cls-1" d="M569.15,583.84s0.07-.75.12-2.08l0.27-5.83c0.06-2.54.18-5.58,0.22-9.08s0.06-7.45.14-11.7l-0.06-6.67V545l-0.09-3.61-0.15-7.47-0.31-7.8-0.11-4-0.2-4c-0.16-2.71-.22-5.44-0.32-8.18l-0.82-16.61a142.76,142.76,0,0,0-2.33-16.59c-0.55-2.73-1.07-5.43-1.43-8.09a57,57,0,0,1-.51-7.82,55.11,55.11,0,0,1,2-14.76c0.62-2.35,1.2-4.65,1.87-6.88s1.42-4.39,2.23-6.48c1.6-4.17,3.48-8,5.2-11.51a93.94,93.94,0,0,1,5.31-9.08c1.68-2.55,3.21-4.58,4.35-6s1.84-2.15,1.84-2.15l0,0a3.64,3.64,0,0,1,5-.27s0.78,0.67,2,1.94a64.78,64.78,0,0,1,4.89,5.6,86.41,86.41,0,0,1,6.14,8.91,76.84,76.84,0,0,1,5.79,11.85,89.18,89.18,0,0,1,4.39,14.28,64.43,64.43,0,0,1,1.52,16.09c-0.31,5.58-1.75,11.3-3.35,17.06-0.8,2.88-1.76,5.77-2.56,8.67s-1.52,5.81-2.16,8.72l-2.08,8.7c-0.7,2.89-1.37,5.75-2.19,8.58s-1.57,5.63-2.43,8.38l-1.25,4.1-1.33,4-2.7,7.78q-1.4,3.8-2.8,7.38c-1.78,4.79-3.77,9.25-5.5,13.34-0.92,2-1.83,4-2.69,5.83s-1.7,3.59-2.53,5.21-1.57,3.14-2.32,4.53l-2.09,3.79c-1.31,2.28-2.3,4-3.08,5.27s-1.16,1.82-1.16,1.82l0,0.06A2.6,2.6,0,0,1,569.15,583.84Z" transform="translate(-146.92 -130.33)"/><path class="cls-1" d="M519.61,600s0-.71-0.12-2l-0.4-5.46c-0.23-2.37-.45-5.21-0.8-8.48s-0.77-6.94-1.17-10.91l-0.8-6.21-0.39-3.25-0.48-3.35-1-6.94-1.15-7.23-0.54-3.69-0.64-3.74c-0.45-2.51-.81-5-1.21-7.58l-2.6-15.38a133.9,133.9,0,0,0-4-15.19c-0.82-2.48-1.6-4.94-2.23-7.37a53.41,53.41,0,0,1-1.34-7.23,51.68,51.68,0,0,1,.21-14c0.32-2.26.6-4.47,1-6.62s0.84-4.25,1.36-6.28c1-4.06,2.35-7.87,3.57-11.29a88.11,88.11,0,0,1,3.94-9c1.28-2.56,2.48-4.62,3.39-6.05s1.48-2.21,1.48-2.21l0,0a3.42,3.42,0,0,1,4.62-.8s0.8,0.53,2.11,1.58a60.76,60.76,0,0,1,5.17,4.67,81,81,0,0,1,6.71,7.62A72.07,72.07,0,0,1,541,454a83.65,83.65,0,0,1,5.67,12.81,60.43,60.43,0,0,1,3.2,14.81,76.51,76.51,0,0,1-1.23,16.26c-0.43,2.77-1,5.57-1.42,8.36s-0.77,5.58-1,8.36l-1,8.33c-0.33,2.77-.64,5.51-1.09,8.23s-0.84,5.42-1.34,8.08l-0.71,4-0.8,3.89-1.66,7.55q-0.88,3.69-1.79,7.19c-1.12,4.66-2.48,9-3.65,13s-2.45,7.65-3.64,10.86c-0.59,1.6-1.11,3.1-1.66,4.47L527.39,594c-1,2.27-1.69,4-2.28,5.25s-0.88,1.82-.88,1.82l0,0.07A2.44,2.44,0,0,1,519.61,600Z" transform="translate(-146.92 -130.33)"/><path class="cls-1" d="M463.26,624.64s0-.65-0.11-1.79l-0.36-5c-0.21-2.17-.41-4.77-0.73-7.77s-0.7-6.35-1.07-10l-0.73-5.68c-0.21-2-.49-4-0.8-6L458.58,582l-1.06-6.61L457,572l-0.58-3.42c-0.41-2.3-.74-4.61-1.11-6.94L453,547.59a122.54,122.54,0,0,0-3.67-13.91c-0.75-2.27-1.46-4.52-2-6.75a49.57,49.57,0,0,1-1.22-6.61,47.3,47.3,0,0,1,.19-12.79c0.29-2.07.55-4.09,0.9-6.06s0.77-3.89,1.25-5.75a106.74,106.74,0,0,1,3.28-10.34,76.25,76.25,0,0,1,3.59-8.28,55.29,55.29,0,0,1,4.45-7.56l0,0a3.13,3.13,0,0,1,4.24-.74,47.79,47.79,0,0,1,6.66,5.73,70.64,70.64,0,0,1,6.12,7,63.86,63.86,0,0,1,6.15,9.51,76.55,76.55,0,0,1,5.19,11.72A55.31,55.31,0,0,1,491,516.27a70,70,0,0,1-1.13,14.88c-0.39,2.54-.92,5.1-1.3,7.65s-0.71,5.11-1,7.65l-0.89,7.62c-0.31,2.53-.58,5-1,7.54-0.79,5-1.59,9.87-2.61,14.57l-1.52,6.91q-0.81,3.38-1.64,6.58c-1,4.26-2.27,8.26-3.34,11.93s-2.24,7-3.33,9.94c-0.54,1.47-1,2.83-1.52,4.1l-1.39,3.45c-0.88,2.08-1.55,3.68-2.09,4.8s-0.8,1.67-.8,1.67l0,0.06A2.23,2.23,0,0,1,463.26,624.64Z" transform="translate(-146.92 -130.33)"/><path class="cls-1" d="M400,639.47s0-.57,0-1.58l0-4.42c0-1.92,0-4.23-.07-6.89s-0.15-5.64-.21-8.87l-0.22-5.05c0-1.73-.14-3.53-0.26-5.38L399,601.62l-0.44-5.9-0.19-3-0.26-3.06c-0.2-2.05-.31-4.11-0.46-6.19l-1.06-12.56a108.2,108.2,0,0,0-2.21-12.51c-0.49-2.06-1-4.09-1.3-6.09a43.16,43.16,0,0,1-.59-5.91,41.77,41.77,0,0,1,1.11-11.24c0.41-1.8.79-3.56,1.24-5.26s1-3.37,1.52-5c1.09-3.2,2.44-6.19,3.65-8.86a67.33,67.33,0,0,1,3.77-7,51,51,0,0,1,3.15-4.65c0.81-1.09,1.32-1.68,1.32-1.68l0,0a2.74,2.74,0,0,1,3.78-.33s0.6,0.49,1.58,1.42a45,45,0,0,1,3.86,4.11,62.37,62.37,0,0,1,4.88,6.59,57.53,57.53,0,0,1,4.71,8.82,67.59,67.59,0,0,1,3.7,10.7,48.84,48.84,0,0,1,1.58,12.14,61.82,61.82,0,0,1-2.09,13c-1.14,4.41-2.36,8.85-3.11,13.3l-1.35,6.64c-0.45,2.2-.88,4.39-1.43,6.56-1.06,4.33-2.12,8.56-3.37,12.63l-1.84,6q-1,2.91-1.92,5.67c-1.22,3.67-2.61,7.1-3.82,10.25s-2.49,6-3.66,8.5c-0.59,1.25-1.1,2.42-1.64,3.49l-1.48,2.93c-0.93,1.76-1.63,3.12-2.19,4.07s-0.83,1.41-.83,1.41l0,0.05A2,2,0,0,1,400,639.47Z" transform="translate(-146.92 -130.33)"/><path class="cls-1" d="M345.75,644.69s0-.51,0-1.4l0-3.93c0-1.71,0-3.76-.06-6.11s-0.13-5-.18-7.87l-0.2-4.49c0-1.54-.12-3.13-0.23-4.78l-0.27-5-0.39-5.24c-0.17-3.53-.6-7.2-0.81-10.88l-0.94-11.15a96.06,96.06,0,0,0-2-11.1,49.52,49.52,0,0,1-1.68-10.65,37.08,37.08,0,0,1,1-10c0.36-1.6.7-3.16,1.1-4.67s0.85-3,1.35-4.41c1-2.84,2.17-5.49,3.24-7.86a59.77,59.77,0,0,1,3.34-6.23,45.28,45.28,0,0,1,2.8-4.13c0.72-1,1.18-1.49,1.18-1.49l0,0a2.44,2.44,0,0,1,3.35-.3s0.54,0.43,1.4,1.26a40,40,0,0,1,3.43,3.65,55.38,55.38,0,0,1,4.33,5.85,51.08,51.08,0,0,1,4.18,7.83,60,60,0,0,1,3.29,9.5,43.36,43.36,0,0,1,1.4,10.78,54.89,54.89,0,0,1-1.85,11.55c-1,3.91-2.09,7.86-2.76,11.8l-1.2,5.9c-0.4,2-.78,3.9-1.27,5.82-0.94,3.85-1.89,7.6-3,11.21l-1.63,5.3q-0.85,2.59-1.71,5c-1.08,3.26-2.32,6.31-3.39,9.1s-2.21,5.32-3.25,7.55-2,4.14-2.77,5.7-1.45,2.77-1.94,3.61-0.74,1.25-.74,1.25l0,0A1.75,1.75,0,0,1,345.75,644.69Z" transform="translate(-146.92 -130.33)"/><path class="cls-1" d="M290.06,653.77s0.06-.5.13-1.4l0.31-3.92c0.09-1.7.24-3.75,0.35-6.1s0.2-5,.35-7.87l0.1-4.49c0.06-1.54.09-3.14,0.09-4.78l0.06-5,0-5.25c0.07-3.53-.12-7.22-0.07-10.91l-0.19-11.19a96.06,96.06,0,0,0-1.21-11.21,49.52,49.52,0,0,1-1-10.74,37.08,37.08,0,0,1,1.65-9.89c0.47-1.57.91-3.1,1.41-4.59s1.05-2.92,1.64-4.31c1.15-2.77,2.53-5.33,3.76-7.63a59.77,59.77,0,0,1,3.76-6,45.29,45.29,0,0,1,3.07-3.93c0.78-.92,1.27-1.41,1.27-1.41l0,0a2.44,2.44,0,0,1,3.37-.07s0.51,0.47,1.31,1.35a40,40,0,0,1,3.18,3.87,55.38,55.38,0,0,1,3.93,6.13A51.08,51.08,0,0,1,321,552.5a60,60,0,0,1,2.64,9.7,43.36,43.36,0,0,1,.68,10.85,54.89,54.89,0,0,1-2.62,11.4c-1.28,3.84-2.62,7.7-3.55,11.59l-1.59,5.8c-0.53,1.93-1,3.84-1.66,5.72-1.2,3.77-2.39,7.46-3.74,11l-2,5.17q-1,2.52-2,4.91c-1.3,3.18-2.73,6.14-4,8.85s-2.56,5.16-3.75,7.31-2.24,4-3.14,5.5-1.63,2.67-2.18,3.48-0.82,1.2-.82,1.2l0,0A1.75,1.75,0,0,1,290.06,653.77Z" transform="translate(-146.92 -130.33)"/><path class="cls-1" d="M233.92,639.27s0.11-.42.25-1.18l0.67-3.32,0.94-5.18c0.38-2,.67-4.27,1.09-6.69l0.55-3.83c0.21-1.31.4-2.67,0.57-4.08l0.57-4.29,0.51-4.49c0.42-3,.64-6.19,1.06-9.33l1-9.58a82.71,82.71,0,0,0,.12-9.71,42.63,42.63,0,0,1,.29-9.28A31.92,31.92,0,0,1,244,560c0.56-1.29,1.1-2.56,1.68-3.78s1.2-2.39,1.85-3.52c1.29-2.25,2.71-4.3,4-6.13a51.45,51.45,0,0,1,3.83-4.73,39,39,0,0,1,3-3c0.76-.7,1.23-1.07,1.23-1.07l0,0a2.1,2.1,0,0,1,2.88.29s0.39,0.45,1,1.29a34.41,34.41,0,0,1,2.32,3.64,47.67,47.67,0,0,1,2.72,5.64,44.86,44.86,0,0,1,2.28,7.29,51.66,51.66,0,0,1,1.26,8.56,37.33,37.33,0,0,1-.54,9.35,47.26,47.26,0,0,1-3.42,9.47c-1.49,3.15-3,6.31-4.23,9.54s-2.57,6.42-4,9.52-2.81,6.13-4.33,9l-2.23,4.22q-1.13,2.05-2.25,4c-1.44,2.59-3,5-4.32,7.16s-2.74,4.14-4,5.86-2.31,3.2-3.24,4.39-1.67,2.11-2.22,2.75-0.82.94-.82,0.94l0,0A1.51,1.51,0,0,1,233.92,639.27Z" transform="translate(-146.92 -130.33)"/><path class="cls-2" d="M1104.89,471.19l-0.43-.3-1.42-1c-1.23-.82-2.92-1.93-4.66-3-3.46-2.21-7-4.37-7-4.37a21.53,21.53,0,0,1,21.39-37.36l0.07,0s4,2.19,8,4.52c2,1.16,4,2.36,5.58,3.3l1.92,1.18,0.83,0.53h0a21.9,21.9,0,0,1-23.46,37Z" transform="translate(-146.92 -130.33)"/><path class="cls-2" d="M1062.56,446.36l-4.64-2.41c-2.77-1.43-6.48-3.3-10.22-5.14-7.47-3.68-15-7.17-15-7.17a20.07,20.07,0,0,1,15.94-36.83l0.07,0s8.17,3.34,16.25,6.91c4,1.78,8.08,3.6,11.09,5l5,2.32a20.8,20.8,0,1,1-17.57,37.71l-0.72-.35Z" transform="translate(-146.92 -130.33)"/><path class="cls-2" d="M1002,418.38l-4.87-2c-2.91-1.16-6.81-2.68-10.72-4.16-7.82-3-15.72-5.76-15.72-5.76a18.61,18.61,0,0,1,11.57-35.37l0.07,0s8.41,2.57,16.76,5.35c4.18,1.38,8.34,2.81,11.46,3.9l5.16,1.82a19.34,19.34,0,0,1-12.87,36.48l-0.7-.26Z" transform="translate(-146.92 -130.33)"/><path class="cls-2" d="M938.91,396.06l-5-1.51c-3-.89-7-2.06-11.08-3.18-8.07-2.26-16.2-4.32-16.2-4.32a17.15,17.15,0,0,1,7.66-33.43h0.07s8.6,1.79,17.15,3.79c4.28,1,8.54,2,11.74,2.84l5.3,1.34a17.88,17.88,0,0,1-8.78,34.67L939,396.1Z" transform="translate(-146.92 -130.33)"/><path class="cls-2" d="M873.91,379.55l-5.16-1c-3.09-.61-7.21-1.4-11.34-2.15-8.26-1.51-16.56-2.81-16.56-2.81a15.69,15.69,0,0,1,4.14-31.1h0.06s8.71,1,17.4,2.19c4.34,0.6,8.68,1.24,11.93,1.74l5.39,0.85a16.42,16.42,0,1,1-5.12,32.44l-0.62-.11Z" transform="translate(-146.92 -130.33)"/><path class="cls-2" d="M807.56,369.11l-5.25-.55c-3.14-.32-7.32-0.72-11.51-1.08-8.38-.73-16.78-1.22-16.78-1.22a14.23,14.23,0,0,1,1.05-28.44h0.06s8.75,0.15,17.51.53c4.38,0.19,8.75.41,12,.61l5.44,0.34a15,15,0,0,1-1.86,29.87l-0.58,0h-0.12Z" transform="translate(-146.92 -130.33)"/><path class="cls-2" d="M740.43,365l-5.27,0c-3.15,0-7.35,0-11.54.09-8.39.13-16.78,0.53-16.78,0.53a12.77,12.77,0,0,1-1.8-25.48h0.05s8.74-.79,17.5-1.3c4.38-.26,8.76-0.47,12-0.6l5.45-.2a13.5,13.5,0,1,1,1,27h-0.64Z" transform="translate(-146.92 -130.33)"/><path class="cls-2" d="M673.4,368.2l-5.24.6c-3.12.37-7.29,0.9-11.44,1.49-8.31,1.16-16.57,2.64-16.57,2.64a11.32,11.32,0,0,1-4.47-22.18h0.05s8.57-1.91,17.2-3.49c4.31-.8,8.64-1.54,11.89-2.07l5.39-.85a12,12,0,0,1,3.75,23.8l-0.46.06H673.4Z" transform="translate(-146.92 -130.33)"/><path class="cls-2" d="M607.35,379.9l-5.11,1.31c-3,.8-7.09,1.9-11.12,3.07-8.07,2.32-16,5-16,5a9.86,9.86,0,0,1-6.65-18.55l0,0s8.2-3.13,16.52-5.91c4.16-1.4,8.34-2.73,11.48-3.7l5.23-1.58a10.59,10.59,0,0,1,6.13,20.27l-0.39.11Z" transform="translate(-146.92 -130.33)"/><path class="cls-2" d="M543.68,401l-4.84,2.08c-2.89,1.26-6.72,3-10.51,4.78-7.61,3.57-15,7.49-15,7.49a8.4,8.4,0,0,1-8.17-14.67l0,0s7.57-4.42,15.35-8.48c3.88-2,7.8-4,10.76-5.45l4.92-2.37a9.13,9.13,0,0,1,7.92,16.45l-0.32.15Z" transform="translate(-146.92 -130.33)"/><path class="cls-2" d="M484.32,432.34l-4.4,2.91c-2.61,1.76-6.07,4.14-9.46,6.61s-6.74,5-9.21,6.94l-4.09,3.27,0,0a6.94,6.94,0,0,1-9-10.59s1.64-1.47,4.14-3.61,5.88-5,9.33-7.67,6.94-5.37,9.59-7.32l4.42-3.2a7.67,7.67,0,1,1,9,12.42l-0.24.17Z" transform="translate(-146.92 -130.33)"/><path class="cls-2" d="M431.33,475.15l-1.21.86c-0.82.58-2,1.38-3.35,2.31-2.76,1.87-6.5,4.24-10.3,6.46s-7.67,4.33-10.59,5.85-4.89,2.48-4.89,2.48l0,0a5.48,5.48,0,0,1-5-9.75s1.85-1,4.57-2.56,6.32-3.71,9.82-6,6.92-4.64,9.42-6.48c1.25-.92,2.27-1.71,3-2.24l1.15-.9h0a6.21,6.21,0,1,1,7.65,9.78Z" transform="translate(-146.92 -130.33)"/><path class="cls-2" d="M368.68,506.48l-1.4.47-3.76,1.24c-3.11,1-7.28,2.28-11.47,3.45-8.38,2.37-16.88,4.21-16.88,4.21h0a4,4,0,0,1-1.87-7.82s8.2-2.14,16.24-4.79c4-1.31,8-2.71,11-3.81l3.57-1.35,1.38-.53a4.75,4.75,0,1,1,3.43,8.86Z" transform="translate(-146.92 -130.33)"/><path class="cls-2" d="M300.91,521.5l-5.38.56c-3.23.31-7.55,0.67-11.87,0.94-8.64.56-17.28,0.66-17.28,0.66h0a2.56,2.56,0,0,1-.17-5.12s8.52-.46,17-1.37c4.23-.44,8.45-1,11.61-1.42l5.27-.77h0a3.29,3.29,0,0,1,1,6.51Z" transform="translate(-146.92 -130.33)"/><path class="cls-2" d="M231.88,522.58l-5.37-.44c-3.22-.28-7.51-0.71-11.78-1.21-8.56-1-17.06-2.35-17.06-2.35h0a1.1,1.1,0,0,1,.3-2.18s8.51,1,17,1.61c4.26,0.32,8.53.56,11.73,0.71l5.34,0.21h0a1.83,1.83,0,0,1-.14,3.66h-0.08Z" transform="translate(-146.92 -130.33)"/><path class="cls-2" d="M163.9,511.92l-17-4.31,17.15,3.59a0.37,0.37,0,1,1-.15.73h0Z" transform="translate(-146.92 -130.33)"/></svg>