<svg id="Layer_1" data-name="Layer 1" xmlns="http://www.w3.org/2000/svg" viewBox="0 0 220.48 102.34"><defs><style>.cls-1{fill:#c455a2;}</style></defs><title>fish_stom</title><path class="cls-1" d="M-104.63,616.79c-1.18-14.29-7.84-27.87-21.22-34.47-9.6-4.73-19.61-5.47-30.14-6.61-24.74-2.68-49.3-1.1-73.84,2.69-27.56,4.26-54,13.38-79,25.52-7,3.41-13,12.21-15,19.51-2.15,7.82-1.18,18.22,3.29,25.16s11.19,13.11,19.51,15a36.51,36.51,0,0,0,8.11.94l0.65,0.18a429.77,429.77,0,0,0,80.4,11.54,368,368,0,0,0,36.86,0c14.8-.78,31-2.8,43.65-11.35C-115.66,654.23-103,636.73-104.63,616.79Z" transform="translate(324.97 -574.37)"/></svg>