<svg id="Layer_1" data-name="Layer 1" xmlns="http://www.w3.org/2000/svg" viewBox="0 0 100.89 65.52"><defs><style>.cls-1{fill:#9b4b86;}</style></defs><title>fish_hear</title><path class="cls-1" d="M-446.78,614a29.68,29.68,0,0,1,12.86-7.4c5.55-1.53,10.72-1.18,16.31-.25,4.61,0.76,9.06,2.44,13.51,3.82l31.73,9.84a24.23,24.23,0,0,1,10.11,6,16.1,16.1,0,0,1,2.24,2c3.73,4.09,6.55,9.45,6.36,15.14a22.91,22.91,0,0,1-6.4,15.67c-9,9.11-22.58,13.43-35.19,12a125.48,125.48,0,0,1-32.17-8.4c-7-2.78-14.49-5.23-19.58-11.16a29.7,29.7,0,0,1-7.5-18.42C-454.93,626-451.51,618.72-446.78,614Z" transform="translate(454.54 -605.52)"/></svg>