<svg id="Layer_1" data-name="Layer 1" xmlns="http://www.w3.org/2000/svg" viewBox="0 0 613.35 191.98"><defs><style>.cls-1{fill:#8e3573;}.cls-2{fill:#933f7d;}</style></defs><title>fish_inte</title><path class="cls-1" d="M-757.37,624.21c-6.31-10.29-16-16.81-27.06-20.95C-791,600.81-798,600.13-805,600.2a26.46,26.46,0,0,0,.49-6.34c-0.77-17.17-13.84-31.37-31.5-31.5l-122.59-.9c-41.74-.31-84.25-2.58-125.58,4.57-13.84,2.39-27.54,10.88-34.24,23.48-7.94,14.93-7,31.54.08,46.49a46.45,46.45,0,0,0,7.69,11.41l-65.71-1.73c-30.43-.8-60.69-1.51-90.86,1.44q-5.56,1.6-11,3.63a175.68,175.68,0,0,0-27.16,16.12,217.18,217.18,0,0,0-29.26,29.51,240.62,240.62,0,0,0-24.75,42.37q-2.69,7-4.9,14.1a31.3,31.3,0,0,0,15.18-8.25q3.94-3.84,8.16-7.34a154,154,0,0,1,26.43-15.21,213.93,213.93,0,0,1,45.29-11.82c25-2.89,50.14-2.65,75.25-2q40.64,1,81.28,2.14c54.43,1.44,108.91,3.61,163.36,3.81,26.87,0.1,53.76-.55,80.54-2.85,29.25-2.52,58.89-6.17,85.82-18.55,14.44-6.64,27.12-19.48,30.85-35.23A44.55,44.55,0,0,0-757.37,624.21Z" transform="translate(1364.29 -560.88)"/><path class="cls-2" d="M-807.07,597.43q-123.43-2.91-246.87,2c-3.21.13-3.22,5.13,0,5q123.37-4.87,246.87-2C-803.85,602.5-803.85,597.5-807.07,597.43Z" transform="translate(1364.29 -560.88)"/><path class="cls-2" d="M-802.81,646.82q-120.26,2.43-240.54-.62-33.79-.87-67.56-2.17c-3.22-.12-3.21,4.88,0,5q120.19,4.61,240.51,3.73,33.8-.25,67.59-0.94C-799.6,651.75-799.58,646.75-802.81,646.82Z" transform="translate(1364.29 -560.88)"/></svg>