<svg id="Layer_1" data-name="Layer 1" xmlns="http://www.w3.org/2000/svg" viewBox="0 0 748.39 138.11"><defs><style>.cls-1{fill:#ba95b0;}</style></defs><title>fish_aort</title><path class="cls-1" d="M1.43,874.18C-49.42,859.69-100,844.43-151.81,831.9S-256.21,811-310.34,808.48c-28.17-1.32-56.31-1.23-84.39-.11l-0.34-.1v-0.09h-0.37l-0.24-.07a6.19,6.19,0,0,1-.68-0.09s0,0.07,0,.1a13.93,13.93,0,0,1-2.22-.41c-24.71-.72-49.63-1.28-74.08,3-24.67,4.27-48.43,12.91-72.23,20.46-46.83,14.85-93.6,29.28-136.16,54.43-21.45,12.68-44.61,27-58,48.59-5.43,8.77,8.89,15.93,14.28,7.23,11-17.77,31.27-29.58,48.71-40.17a382.87,382.87,0,0,1,62-30.15c22-8.42,44.53-15.32,67-22.44,23.11-7.33,46.22-15.86,70-20.93,26.79-5.71,54.57-4.75,81.77-4a5.89,5.89,0,0,1,1.4-.27v-0.08c22.85-.91,45.75-1.13,68.62-0.46A793.85,793.85,0,0,1-171.35,843c56.8,13,112,29.83,167.56,45.65C8.08,892,13.21,877.54,1.43,874.18Z" transform="translate(740.29 -807.19)"/></svg>