<svg id="Layer_1" data-name="Layer 1" xmlns="http://www.w3.org/2000/svg" xmlns:xlink="http://www.w3.org/1999/xlink" viewBox="0 0 539.76 339.3"><defs><style>.cls-1{fill:none;}.cls-2{clip-path:url(#clip-path);}.cls-3{fill:#9b4b86;}.cls-4{fill:#b25290;}.cls-5{fill:#b56d9f;}.cls-6{fill:#c455a2;}.cls-7{fill:#8e3573;}.cls-8{fill:#b23f8f;}</style><clipPath id="clip-path" transform="translate(-105.56 -399.69)"><path class="cls-1" d="M135.19,600.91C233.37,465,296.77,450.32,296.77,450.32c158.48-55,281.83,23.19,325.64,57.46a26.84,26.84,0,0,1,7.22,33.69L538.5,713.91a20.48,20.48,0,0,1-23.39,10.22L143.75,625A15.52,15.52,0,0,1,135.19,600.91Z"/></clipPath></defs><title>fish_guts</title><g class="cls-2"><path class="cls-3" d="M307.38,532.34a56.21,56.21,0,0,1,24.35-14c10.51-2.9,20.3-2.24,30.89-.48,8.72,1.45,17.16,4.61,25.59,7.23l60.09,18.63A45.88,45.88,0,0,1,467.43,555a30.49,30.49,0,0,1,4.24,3.8c7.07,7.74,12.41,17.89,12,28.68-0.38,11.17-4.16,21.58-12.13,29.68-17,17.25-42.76,25.42-66.64,22.7C383.79,637.49,363.8,631.81,344,624c-13.29-5.26-27.44-9.9-37.09-21.14A56.23,56.23,0,0,1,292.74,568C292,555.06,298.43,541.32,307.38,532.34Z" transform="translate(-105.56 -399.69)"/><path class="cls-4" d="M106.53,572.6c-1.82,11.59-1.66,23.94,5.74,34.51a59.66,59.66,0,0,0,18,16.73c9.21,5.62,21.05,7.11,31.43,5.94a37.22,37.22,0,0,0,17.63-5l9.74-6.87a226.29,226.29,0,0,1,34.91-33.07,174.16,174.16,0,0,1,26.9-14.5c9.34-3,18.88-4.87,28.62-6.87,13.15-2.7,24.68-8.46,36.61-13.6q1.81-.51,3.65-0.9c13.37-.56,27.22.92,40.7,2.69,23.89,3.32,47.58,7.91,71.23,12.74,11.76,2.4,23.63,4.57,35.22,7.76,11.13,3.07,21.65,8.28,33,10.56a168,168,0,0,0,26.26,3.14c3.65,1,7.33,2,11.1,2.74,11.08,2.27,22.85,4.3,34.11,3.41,18.7-1.48,35.4-6.54,49.1-18.58,14.93-13.12,21.13-31.4,21.92-50.38a76.13,76.13,0,0,0-.65-12.86,56.53,56.53,0,0,0,.46-38.48c-6.55-18.82-22.25-35.83-41.76-44.06-24.59-10.38-51.5-14.32-77.53-19.87-24.82-5.3-50-9.31-75.25-7.75-45.9,2.83-89.92,15.36-134.39,24.43-42.62,8.7-86.77,18.8-123.55,40.73A239.11,239.11,0,0,0,158,487.64c-9.69,8.18-17.65,17.57-25.45,27.34a108.83,108.83,0,0,0-14,22.21C113.31,548.63,108.49,560.13,106.53,572.6Zm254.75-20.82c3.94,0.52,7.85,1.06,11.7,1.59Z" transform="translate(-105.56 -399.69)"/><path class="cls-5" d="M395.61,565.75c10.13,7.59,22.61,11.08,34.42,15.13,1.57,0.54,3.13,1.13,4.7,1.67l0.64,0.22,0.16,0.08c2.28,1.14,4.57,2.17,6.79,3.43q3,1.71,5.85,3.69c0.64,0.44,4.12,3.34.76,0.47,0.7,0.6,1.43,1.16,2.13,1.77a109.36,109.36,0,0,1,9.71,9.85c0.15,0.17.37,0.44,0.57,0.69s0.58,0.78.85,1.17q2,2.83,3.74,5.82t3.24,6.11c0.22,0.46.42,0.93,0.63,1.39,0.11,0.27.23,0.56,0.29,0.76a106.22,106.22,0,0,1,3.43,12c1.33,6.54,3.47,12.37,8.48,17.07,6.48,6.08,16.08,7.33,24.39,4.81,9.46-2.87,17.64-8.77,25.43-14.64,3.6-2.71,7.19-5.46,11-7.89,1.78-1.14,3.61-2.21,5.49-3.17,0.55-.28,1.83-0.79,2-0.86l1.1-.37c1.5-.47,3-0.8,4.52-1.16l0.85-.21c2.31-.28,4.64-0.41,7-0.5,4.47-.17,9-0.1,13.43-0.13,15.5-.11,31.82-2.91,44.09-11.94a20.55,20.55,0,0,0,4.09-.52c8.92-2.07,15.66-13.22,12.46-22a29.21,29.21,0,0,0-3.84-7.28,19.5,19.5,0,0,0-7.09-8.05,15.87,15.87,0,0,0-9.36-2.43,37.54,37.54,0,0,0-13.06-.44c-11.7,1.57-23.38,3.26-35.07,4.89-14.7,2.05-25.76,13.66-43.52,9-25.55-6.74-29-30.65-48.43-39-14.77-6.37-30.06-10.78-45.64-14.66s-33.12-4.85-42.64,10.87C383.64,550.35,388,560,395.61,565.75Z" transform="translate(-105.56 -399.69)"/><path class="cls-6" d="M162.9,652.55C169.56,665.68,184,672.13,198,672c11.79-.14,24.09-3.55,35.73-5.6l35.41-6.24,34.3-6c9.61-1.7,19.12-3.35,28.21-7.21,23.26-9.87,42.92-34.73,34.4-61.63a40.72,40.72,0,0,0-2.84-6.74c0.81-7.66-1.24-15.29-7.61-21.14-9.45-8.69-24.2-9.3-36.42-9.21A139,139,0,0,0,288,552.32c-20,4.82-39.12,13.82-57.41,23.39-9,4.73-18,9.74-26.9,14.69C193,596.33,181.24,601.57,172,609.86,159.94,620.65,155.45,637.89,162.9,652.55Z" transform="translate(-105.56 -399.69)"/><path class="cls-7" d="M266.52,648.1c-0.88,6.89,2.34,16.42,9.21,19.44,14.58,6.4,29.55,9.86,44.87,12.07,24.22,9.48,49.58,14.22,75.21,18a23.91,23.91,0,0,0,6.31,3.46c20,7.27,40.52,11.47,61.66,13.77a12.83,12.83,0,0,0,3.95-.2q2.06,0.6,4.13,1.16c10.68,2.88,21.76,4.53,32.73,2s21.55-10.66,26.14-21.2c5.56-12.76,4-26.65-5.14-37.1a33.21,33.21,0,0,0-3.09-3.08l2.46,0.17c10.82,0.66,18.89-10.06,19.28-20.08,0.43-11.22-9.42-18.82-19.5-19.43-5.95-.36-11.88-0.82-17.81-1.4-2.9-.28-5.79-0.6-8.68-0.94l-1.93-.25-3.93-.54q-17.19-2.42-34.17-6.13t-33.61-8.66c-11.49-3.42-22.65-8.27-34.66-9.47a36.13,36.13,0,0,0-33.33,15.58,31.21,31.21,0,0,0-4.21,24.5,209.76,209.76,0,0,0-71.92,1.64C272.94,632.86,267.45,640.87,266.52,648.1Z" transform="translate(-105.56 -399.69)"/><path class="cls-8" d="M495.23,683.72c5-11.92,12.65-22,20.55-32.13,1.63-2.09,3.28-4.16,4.92-6.24l1.73-2.23c0.54-.72,1.08-1.43,1.61-2.15a111,111,0,0,0,9.47-15c3.38-6.62,6.73-12.92,13.3-17,6.93-4.34,15.3-5.88,23.17-3.3,19.31,6.33,22.09,30.93,16.3,47.79A46.67,46.67,0,0,1,577.42,669a147,147,0,0,1-14.29,33.26c-12.45,20.62-43.26,51.36-67.71,28.86C482.76,719.46,489.62,697.12,495.23,683.72Z" transform="translate(-105.56 -399.69)"/></g></svg>