<svg id="Layer_1" data-name="Layer 1" xmlns="http://www.w3.org/2000/svg" viewBox="0 0 576.77 250.28"><defs><style>.cls-1{fill:#b25290;}</style></defs><title>fish_blad</title><path class="cls-1" d="M-71.12,191.05a152.81,152.81,0,0,0-2.35-19.88c-2.31-14.52-8.45-27.41-16.3-39.35-4.48-9.67-11.3-17.17-20.6-23.5C-172.48,66-247.6,48.26-321.56,42.44c-35.37-2.78-71-2.64-106.43-.82-22,1.13-43.75,3.51-65.53,6.59a208.65,208.65,0,0,0-52.85,14.31C-587.5,79.87-616.12,113-641.08,148.9c-7.14,10.26-8.3,27.26-5.09,38.91S-633.89,212.22-623,218c11.72,6.19,25.92,9.3,38.91,5.09s22.32-11.92,30.18-23.21q3.86-5.54,7.89-10.95c1.93-2.37,3.92-4.69,5.94-7a43.33,43.33,0,0,0,5.84-3.73A51.47,51.47,0,0,0-526,174.4a169.77,169.77,0,0,1,29.6-7.93,212.15,212.15,0,0,1,41.14.29c21,3.51,41.45,9.76,61.25,17.66,45.37,20,86.83,47.51,130.14,71.48,11.19,6.19,22.49,12.29,34.11,17.65a272.91,272.91,0,0,0,26.16,10.82c9.87,3.36,20.16,4.82,30.52,5.82,36,3.5,74.31-17.62,90.12-50.36,4.24-8.78,8.12-17.63,9.63-27.26C-72.26,205.74-70.94,198.16-71.12,191.05Z" transform="translate(647.87 -40.29)"/></svg>