<svg id="Layer_1" data-name="Layer 1" xmlns="http://www.w3.org/2000/svg" viewBox="0 0 174.01 137.92"><defs><style>.cls-1,.cls-2,.cls-3,.cls-4,.cls-5,.cls-6,.cls-7,.cls-8,.cls-9{fill:none;stroke-miterlimit:10;}.cls-1{stroke:#8ddfff;}.cls-2{stroke:#ff9f9f;}.cls-3{stroke:#ffb127;}.cls-4{stroke:#a0a0a0;}.cls-5{stroke:#ffec66;}.cls-6{stroke:#e2e200;}.cls-7{stroke:#999;}.cls-8{stroke:#675fff;}.cls-9{stroke:#5b5b5b;}</style></defs><title>fleece</title><path class="cls-1" d="M-791-64.54s17.08,44.44,60.22,57.92" transform="translate(869.64 114.89)"/><path class="cls-2" d="M-726.6-114.87S-723.9-37.68-696-8" transform="translate(869.64 114.89)"/><path class="cls-3" d="M-826.37-38.58S-785.94-14-749.07-25.1" transform="translate(869.64 114.89)"/><path class="cls-4" d="M-818-49.76s22.47,53.1,38.65,53.51" transform="translate(869.64 114.89)"/><path class="cls-5" d="M-829.65-13.81s62-17.86,82.69-50.73" transform="translate(869.64 114.89)"/><path class="cls-6" d="M-769.29-44.87s21.12,63.82,48.09,67.41" transform="translate(869.64 114.89)"/><path class="cls-7" d="M-696-65.55s-25.17,33.26-49.21,27" transform="translate(869.64 114.89)"/><path class="cls-8" d="M-869.49-42.42S-832.64-30.31-821-2" transform="translate(869.64 114.89)"/><path class="cls-9" d="M-838.05,10.62s41.6-16.87,74.6-4.26" transform="translate(869.64 114.89)"/></svg>