<svg id="Layer_2" data-name="Layer 2" xmlns="http://www.w3.org/2000/svg" viewBox="0 0 1366.8 418.01"><defs><style>.cls-1{fill:#fff;}</style></defs><title>foam2</title><path class="cls-1" d="M1647.09,207.58c-10.47-26-30.39-44.42-56.29-54.52-16.34-6.37-32.46-12-49.75-14.91-30.1-5.12-61-5.9-91.43-7.26q-82.78-3.69-165.61-5.8-166.88-4.27-333.84-2.18Q783.86,125,617.71,133.39c-55.3,2.79-110.83,5.1-165.92,10.87-13.61,1.43-27.19,3.14-40.71,5.26-15.84,2.49-32.23,4.35-47.35,9.95a143.4,143.4,0,0,0-50.44,31.07c-6.59,6.14-12.49,14.8-16.63,22.21-3.58,6.39-5.77,13.77-8.06,20.68a34.31,34.31,0,0,0-1.51,6.62c-1,7.44-2.16,15.47-1.53,23a103.43,103.43,0,0,0,4.57,23.74,99.14,99.14,0,0,0,16,29.76c5,6.25,10.15,12.43,15.63,18.26,21.5,44.43,59.1,80.92,101.77,104.92,26.15,14.7,56,24.84,85.57,30a378.91,378.91,0,0,0,95.07,4.58c27.68-2.23,55.2-9.49,83-9.27q4.21,0.75,8.34,1.84c22,10.14,41.42,25.35,63.22,35.91a368.38,368.38,0,0,0,90,30.36c62.4,12,128,8.87,188.62-10.55,18.85-6,36.62-14.35,54.37-23.06,11.32-5.55,22.12-12.09,33.23-18,3-1.22,6.12-2.33,9.25-3.28,3.33-.23,6.67-0.29,10-0.22,15.48,2.13,30.79,5.57,46.09,8.59,23.74,4.68,47.65,8.07,71.88,9a139.61,139.61,0,0,0,25.42-1.19c14.09-2.06,29.12-4.28,42.4-10,12.58-5.38,25.44-11.21,36.24-19.78,8.09-6.42,15.72-13.3,23.4-20.14l1.17-.88h0.29c14.18,1.75,28.27,3.91,42.65,4.22,16.81,0.37,34.11-3,50.23-7.34,16.43-4.43,32.39-12.25,47.1-20.55s27.48-19.35,40-30.53a179.29,179.29,0,0,0,23.45-25.69c10.18-13.47,19.91-27.51,28.08-42.32a313,313,0,0,0,15.5-32.66C1648.82,262.65,1658.42,235.76,1647.09,207.58Z" transform="translate(-285.38 -122.23)"/></svg>