<svg id="Layer_3" data-name="Layer 3" xmlns="http://www.w3.org/2000/svg" viewBox="0 0 798.64 751.5"><defs><style>.cls-1{fill:#fff;}</style></defs><title>foam3</title><path class="cls-1" d="M1344.83,427.93c-5.69-20-15.8-39.84-30.36-49-12.26-7.75-25.15-14.57-38.23-18.94s-26.49-5.79-39.8-7.47c-17.34-2.18-34.72-1.2-52,.38-38.59,3.54-77.12,7.44-115.78,10q-118.6,7.8-237.63,5.32c-38.89-.81-77.76-3.17-116.65-4.7-18.37-.72-36.81-0.71-55,2.24-26.8,4.34-54.21,11.64-77.79,29.95a67.54,67.54,0,0,0-15,17c-2.09,3.38-3.38,6.44-5.42,10.56-5.24,10.6-4.34,8.11-7.42,20.37-3.45,13.73-4.86,20.13-4,37.05a128.9,128.9,0,0,0,11.77,47.51c2.25,4.87,5.19,9,7.92,13.42s5.39,9.24,8.72,13c6.3,7.1,13.3,14.44,20.73,19.24,11.13,7.2,23,12.89,35.09,15.33,8.69,1.75,17.45,2.69,26.17,3.92L674,595c3.93,6.7,8.18,13.09,12.45,19.2,7.29,10.44,16.16,18.39,24.76,26.53a77.35,77.35,0,0,0,14.05,10.76c9.22,5.39,19.07,11.11,29,13.73A112.07,112.07,0,0,0,787,669c4.11-.16,8.21-0.5,12.31-0.64q0.94,1.2,1.86,2.43,4.13,7.84,7.58,16.28c6.57,20.94,11.13,43,14.7,65.19,4.7,35.37,7.55,71.07,11.62,106.56,5.1,44.47,11.06,90.34,24.44,132.06,9.57,29.84,20.4,59,37.08,82.71,2.81,4,6.08,6.68,9.42,9.94,9.21,9,10.78,10.52,23.61,15.81,13,5.37,27,3.69,39.61-1.46,16-6.55,28.52-22.75,39.91-38.69,12.79-17.9,23.38-38.94,32.89-60.36,9.71-21.88,16-45.47,21.94-69.86a337.09,337.09,0,0,0,7.8-45.45c6,0,12.62-2,18.33-4,6.19-2.11,12.1-6.75,17.66-10.79a32.76,32.76,0,0,0,4.45-3.78,156.34,156.34,0,0,0,14.62-17.45c16.29-22.8,25.51-54.59,31.75-85.1,3.89-19,5.54-38.88,7.21-58.57,1.5-17.65,3.25-35.21,6.63-52.24q1.59-5.11,3.49-10l0.35-.57c11.76-5.44,24.27-7.59,36.28-12,17.83-6.57,35-17.56,51-29.8s30.32-28.69,43.78-45.89c13.76-17.59,24.39-38.45,34.61-60.17a80.92,80.92,0,0,0,5.67-31.71A88,88,0,0,0,1344.83,427.93Z" transform="translate(-549.47 -351.2)"/></svg>