<svg id="Layer_1" data-name="Layer 1" xmlns="http://www.w3.org/2000/svg" viewBox="0 0 2083.4 428.17"><defs><style>.cls-1{fill:#fff;}</style></defs><title>foam1</title><path class="cls-1" d="M1985.66-25.45c-21.23-21-49.15-25-77.57-25.71l-92.59-2.39-185.17-4.77c-122.8-3.16-245.78-8.45-368.63-8.27-123.09.18-245.34,13.82-368,22.81-123.27,9-246.46,7.95-370,6.16s-247-4-370.16-13q-45.25-3.3-90.38-7.91c-16.77-1.72-38,9-49.5,20.5q-1.2,1.2-2.37,2.51c-10.64-2-21.83-1.88-31.33,1.19C-58.31-21.93-76.37,13.18-68.85,51.77c6.77,34.7,26.83,70.08,53.57,93.31C12,168.73,43.34,182.91,75.53,198.31c33.09,15.83,65.88,32.66,99.84,46.55,20.48,8.38,43.49,13.09,65.89,11.88a314.43,314.43,0,0,0,97.64,49.71c24.14,7.4,49.8,11.19,74.95,12.57,22.42,1.22,44.35-1.86,66.4-5.07,2.52-.23,5-0.38,7.55-0.44,7.08,4.13,13.73,8.95,20.45,13.74C521.9,337,535.68,343.75,551.32,350c33.57,13.48,69.86,12.45,104.89,7.08,30.54-4.68,59.46-17.23,87-30.81,16.32-8,32-17.55,48.14-26.18,5.34,3.49,10.7,7,16.29,10,17.06,9.25,35.09,16.88,53.22,23.72,31.55,11.91,64.72,17.7,98.2,20.95s67,0.3,100.27-5.3c27.62-4.65,52.8-14.07,78.2-24.6,21.31,9.38,42.68,18.31,65.41,24.09a417.94,417.94,0,0,0,90.27,12.46c30.33,0.87,61-2.6,90.73-8.38,25.58-5,49.44-13.68,73.27-23.56l-3.82,1.61c3.41-1.43,6.79-2.78,10.22-4,8.57,4.31,17.08,8.59,26.34,12.21,11.83,4.63,24.79,6.2,37.37,7.11,23.08,1.66,45.44-4.84,66.39-13.67,29.28-12.36,54.87-31.37,83.33-45.11q5.66-2,11.47-3.38a184.55,184.55,0,0,1,28.07,1.83c27.47,3.72,55.57,6.71,82.28-3.21,19.47-7.24,35.47-16.73,50.48-31.41,5.9-5.77,11.19-12.06,17.07-17.8,2.63-1.6,5.33-3.07,8.09-4.46,24.25-8.9,49.83-15.28,71.66-29.46,18.38-11.94,33.07-25.64,45.38-43.75s16.94-38.51,18.45-60a54.86,54.86,0,0,0-3.31-21.46,117.39,117.39,0,0,0,6-30.84C2014.3,18.42,2003.55-7.75,1985.66-25.45Z" transform="translate(70.53 66.59)"/></svg>