<svg id="Layer_1" data-name="Layer 1" xmlns="http://www.w3.org/2000/svg" viewBox="0 0 1783.15 1119.25"><defs><style>.cls-1{fill:#c46298;}</style></defs><title>inside_fish</title><path class="cls-1" d="M1489.35,411.38c-1-49.07-1.26-98.79-6.2-147.76-5.9-35.86-13.7-71.39-19.52-107.27-5.39-33.22-10.31-66.71-12.86-100.3-1.54-20.28-1.47-40.65-2.18-61-1.48-42.28-4.17-84.52-7.72-126.68-0.12-1.41-.25-2.82-0.37-4.24l-8-.32c-140.07-5.28-280.68-4.07-420.82-2.39-73.79.88-147.57,4.46-221.38,3-36.74-.75-73.48-2.78-110-7-41.82-4.82-83-12.3-124.51-18.6-62-7-124.41-8.59-186.77-8-62,.6-124,3.17-186,4.19-62.81,1-125.51,2-188.27,4.85-95.18,4.36-190.29,10.63-285.5,14.2-2.43,147.47-5.54,295.64,13.27,442.25,8.94,66.18,17.46,132.19,21.48,199,7,115.93,5.27,232.17,2.35,348.2q-1.22,48.54-2.58,97.09c94.89,5.89,190,8.67,285.07,9.23,157.26,0.93,314.47-3.94,471.6-9.62,79.48-2.87,159-7,238.54-7.12,77.87-.14,155.71,2.55,233.56,4.36,157.93,3.68,316.12,1.51,474-2.42,14.26-.35,28.54-0.86,42.82-1.43V932.3c0-115.87.77-231.73,1.12-347.6C1490.72,526.93,1490.54,469.15,1489.35,411.38Zm-170.67-12.11c-6.12,13-12.13,26.38-16.32,40.17-5.07,16.69-7,34.47-9,51.67-4.43,37.8.69,76.71,8.63,114.12-35.37,18.18-65.47,46.15-87,80-12.93,20.3-22.9,44.19-26.81,68-2.57,15.71-5.46,32.23-3.91,48.29q0.24,2.51.49,5l-0.32.19c-7.74-2.64-15.58-4.95-23.5-6.81-23.11-5.42-47-8.19-70.53-10.67-16.33-1.72-32.76-3-49.16-3.69-23.15-.93-45.52,1.51-68.44,5.16-5.06.81-10.14,1.87-15.19,3.17A284.38,284.38,0,0,0,918,760a58.35,58.35,0,0,1-17.82-10.28,79.79,79.79,0,0,0-7-4.2,145.45,145.45,0,0,0-22.61-4.92,69,69,0,0,0-9-.09c-8.69,1.66-17.22,3.89-25.83,5.65a125.44,125.44,0,0,1-26,11.88,126.38,126.38,0,0,1-64.65,14.45,167,167,0,0,1-84.7-22.91l-33.61-26c-16.4-5.53-32.57-11.91-49.58-15.14a110.5,110.5,0,0,0-15.55-.16,158.54,158.54,0,0,0-25.12,7.25c-3.45,2.64-6.92,5.43-10.45,8.43-11.5,9.79-21.46,22.13-29.83,35q-8.26-2.86-16.73-5.28c-49.71-14.08-107.86-15.84-156.89,2.21-8.93,3.29-17.74,7-26.36,11.06a92.68,92.68,0,0,0-37.52-8c-24.66,0-50.57,10.73-68,28.17a72.16,72.16,0,0,0-18.59,27.35,92.72,92.72,0,0,0-38.08-8.23c-24.66,0-50.57,10.73-68,28.17a74.51,74.51,0,0,0-11,12.86,78.44,78.44,0,0,0-16.31-21.46c-18.82-17.27-42-28.17-68-28.17-2.44,0-4.9.13-7.36,0.34a71.7,71.7,0,0,0,7.13-15.42,72.44,72.44,0,0,0,8.28-37.06c-1.11-24.88-9.29-50.67-28.17-68a112.78,112.78,0,0,0-28-19.08,62.18,62.18,0,0,1,13.13-14.95,361.2,361.2,0,0,0,12.53-76.7c1.4-26.68-1.87-55.44-11-80.6A294.54,294.54,0,0,0-77.5,452.07a324.46,324.46,0,0,0,.42-58.83,527.09,527.09,0,0,0-8.29-60.37c36.25-35.79,64-78.39,83.15-125.43A170.59,170.59,0,0,0,5.07,101.94a140.19,140.19,0,0,0-27-53.17,262.33,262.33,0,0,0,66.62-8.69c34.8-9.19,65.44-25.41,94-45.78,27.58,25,61.89,42.67,96.55,54.92,86.19,30.46,187.13,5.66,258.91-47.69,8.85-6.58,17.56-13.26,26-20.2A252.86,252.86,0,0,0,597.76,20C637,31.62,679.43,31.47,719.1,22c32.87-7.88,62.09-23.8,88.62-43.87A203.06,203.06,0,0,0,861.61.65,224.93,224.93,0,0,0,985.21-3.56q11.23,8.91,23.25,16.68c17.69,11.42,37.91,19.67,57.58,26.78,20.09,7.26,40.88,9.75,62,12.38a178.12,178.12,0,0,0,41.35.6c21.4-2.32,42.9-5,63.34-12a320.74,320.74,0,0,0,45.51-19.53,223.2,223.2,0,0,0,18.34,21.2q7.33,7.46,15.35,14.16-1.2,3.76-2.38,7.49c-14.87,47.33-23.31,99.65-9,148.27a189.58,189.58,0,0,0,14,34.76q-3,7.06-5.49,14.44c-14.92,43.68-8.31,90.72,11.09,131.54,0.24,0.5.49,1,.74,1.5C1320.14,396.25,1319.39,397.76,1318.67,399.27Z" transform="translate(292.55 169.27)"/></svg>