<svg id="wave_1" data-name="wave 1" xmlns="http://www.w3.org/2000/svg" xmlns:xlink="http://www.w3.org/1999/xlink" viewBox="0 0 726.45 1246.36"><defs><style>.cls-1,.cls-2,.cls-3,.cls-4,.cls-5,.cls-6,.cls-7{stroke-miterlimit:10;}.cls-1{fill:url(#New_Gradient_Swatch);stroke:url(#New_Gradient_Swatch-2);}.cls-2{fill:url(#New_Gradient_Swatch-3);stroke:url(#New_Gradient_Swatch-4);}.cls-3{fill:url(#New_Gradient_Swatch-5);stroke:url(#New_Gradient_Swatch-6);}.cls-4{fill:url(#New_Gradient_Swatch-7);stroke:url(#New_Gradient_Swatch-8);}.cls-5{fill:url(#New_Gradient_Swatch-9);stroke:url(#New_Gradient_Swatch-10);}.cls-6{fill:url(#New_Gradient_Swatch-11);stroke:url(#New_Gradient_Swatch-12);}.cls-7{fill:url(#New_Gradient_Swatch-13);stroke:url(#New_Gradient_Swatch-14);}</style><linearGradient id="New_Gradient_Swatch" x1="-337.88" y1="1345.39" x2="-354.18" y2="1159.02" gradientTransform="translate(-214.29 -857.08) rotate(-39.68)" gradientUnits="userSpaceOnUse"><stop offset="0" stop-color="#fff" stop-opacity="0.35"/><stop offset="1" stop-color="#fff" stop-opacity="0.35"/></linearGradient><linearGradient id="New_Gradient_Swatch-2" x1="252.43" y1="318.5" x2="437.26" y2="318.5" gradientTransform="matrix(1, 0, 0, 1, 0, 0)" xlink:href="#New_Gradient_Swatch"/><linearGradient id="New_Gradient_Swatch-3" x1="2415.81" y1="4555.03" x2="2394.26" y2="4308.66" gradientTransform="translate(5230.3 -237.08) rotate(106.66)" xlink:href="#New_Gradient_Swatch"/><linearGradient id="New_Gradient_Swatch-4" x1="1555.32" y1="4644.09" x2="1762.16" y2="4644.09" gradientTransform="translate(4960.72 -845.06) rotate(90.15)" xlink:href="#New_Gradient_Swatch"/><linearGradient id="New_Gradient_Swatch-5" x1="427.14" y1="583.62" x2="413.44" y2="426.94" gradientTransform="matrix(1, 0, 0, 1, 0, 0)" xlink:href="#New_Gradient_Swatch"/><linearGradient id="New_Gradient_Swatch-6" x1="343.8" y1="509.75" x2="493.59" y2="509.75" gradientTransform="matrix(1, 0, 0, 1, 0, 0)" xlink:href="#New_Gradient_Swatch"/><linearGradient id="New_Gradient_Swatch-7" x1="658.29" y1="1068.21" x2="640.04" y2="859.7" gradientTransform="matrix(1, 0, 0, 1, 0, 0)" xlink:href="#New_Gradient_Swatch"/><linearGradient id="New_Gradient_Swatch-8" x1="571.57" y1="964.17" x2="726.45" y2="964.17" gradientTransform="matrix(1, 0, 0, 1, 0, 0)" xlink:href="#New_Gradient_Swatch"/><linearGradient id="New_Gradient_Swatch-9" x1="77.74" y1="218.84" x2="58.21" y2="-4.39" gradientTransform="matrix(1, 0, 0, 1, 0, 0)" xlink:href="#New_Gradient_Swatch"/><linearGradient id="New_Gradient_Swatch-10" x1="0" y1="108.55" x2="131.63" y2="108.55" gradientTransform="matrix(1, 0, 0, 1, 0, 0)" xlink:href="#New_Gradient_Swatch"/><linearGradient id="New_Gradient_Swatch-11" x1="-636.88" y1="2490.83" x2="-664.55" y2="2174.62" gradientTransform="translate(-110.48 -1328.53) rotate(-21.93)" xlink:href="#New_Gradient_Swatch"/><linearGradient id="New_Gradient_Swatch-12" x1="12.34" y1="1093.57" x2="313.65" y2="1093.57" gradientTransform="matrix(1, 0, 0, 1, 0, 0)" xlink:href="#New_Gradient_Swatch"/><linearGradient id="New_Gradient_Swatch-13" x1="-537.16" y1="2568.52" x2="-552.87" y2="2388.97" gradientTransform="translate(2232.14 -764.12) rotate(45.99)" xlink:href="#New_Gradient_Swatch"/><linearGradient id="New_Gradient_Swatch-14" x1="-640.08" y1="2481.37" x2="-458.7" y2="2481.37" gradientTransform="translate(2232.14 -764.12) rotate(45.99)" xlink:href="#New_Gradient_Swatch"/></defs><title>micro_2</title><polygon class="cls-1" points="253.03 261.24 266.33 375.99 435.61 343.78 253.03 261.24"/><polygon class="cls-2" points="435.61 726.25 352.72 802.49 395.63 859.99 338.76 904.07 267.95 779.47 188.87 698.22 325.7 712.15 352.79 747.29 435.61 726.25"/><polygon class="cls-3" points="344.32 499.63 357.83 589.69 447.88 569.42 492.91 472.61 380.34 429.84 344.32 499.63"/><polygon class="cls-4" points="572.24 921.3 680.83 856.13 725.86 1003.95 613.29 1072.15 595.28 964.14 572.24 921.3"/><polygon class="cls-5" points="0.5 0.66 131.08 37.78 108.57 216.14 0.5 126.74 0.5 0.66"/><polygon class="cls-6" points="76.37 941.42 189.22 1019.76 195.44 1136.18 312.24 1177.62 143.07 1245.73 12.96 1000.93 76.37 941.42"/><polygon class="cls-7" points="64.03 440.81 17.7 485.56 116.09 574.77 34.3 653.77 84.76 671.57 189.35 570.55 64.03 440.81"/></svg>