<svg id="wave_1" data-name="wave 1" xmlns="http://www.w3.org/2000/svg" xmlns:xlink="http://www.w3.org/1999/xlink" viewBox="0 0 625.05 827.57"><defs><style>.cls-1,.cls-2,.cls-3,.cls-4,.cls-5{stroke-miterlimit:10;}.cls-1{fill:url(#New_Gradient_Swatch);stroke:url(#New_Gradient_Swatch-2);}.cls-2{fill:url(#New_Gradient_Swatch-3);stroke:url(#New_Gradient_Swatch-4);}.cls-3{fill:url(#New_Gradient_Swatch-5);stroke:url(#New_Gradient_Swatch-6);}.cls-4{fill:url(#New_Gradient_Swatch-7);stroke:url(#New_Gradient_Swatch-8);}.cls-5{fill:url(#New_Gradient_Swatch-9);stroke:url(#New_Gradient_Swatch-10);}</style><linearGradient id="New_Gradient_Swatch" x1="1909.53" y1="3154.2" x2="1888.13" y2="2909.65" gradientTransform="translate(3150.54 1937.93) rotate(153.07)" gradientUnits="userSpaceOnUse"><stop offset="0" stop-color="#fff" stop-opacity="0.35"/><stop offset="1" stop-color="#fff" stop-opacity="0.35"/></linearGradient><linearGradient id="New_Gradient_Swatch-2" x1="0" y1="95.02" x2="166.88" y2="95.02" gradientTransform="matrix(1, 0, 0, 1, 0, 0)" xlink:href="#New_Gradient_Swatch"/><linearGradient id="New_Gradient_Swatch-3" x1="1001.26" y1="2987.21" x2="992.76" y2="2890.05" gradientTransform="matrix(1, 0.12, -0.12, 0.99, -134.23, -2257.57)" xlink:href="#New_Gradient_Swatch"/><linearGradient id="New_Gradient_Swatch-4" x1="399.89" y1="778.27" x2="625.05" y2="778.27" gradientTransform="matrix(1, 0, 0, 1, 0, 0)" xlink:href="#New_Gradient_Swatch"/><linearGradient id="New_Gradient_Swatch-5" x1="373.72" y1="290.97" x2="360.01" y2="134.29" gradientTransform="matrix(1, 0, 0, 1, 0, 0)" xlink:href="#New_Gradient_Swatch"/><linearGradient id="New_Gradient_Swatch-6" x1="290.37" y1="217.1" x2="440.16" y2="217.1" gradientTransform="matrix(1, 0, 0, 1, 0, 0)" xlink:href="#New_Gradient_Swatch"/><linearGradient id="New_Gradient_Swatch-7" x1="156.17" y1="579.52" x2="137.93" y2="371.01" gradientTransform="matrix(1, 0, 0, 1, 0, 0)" xlink:href="#New_Gradient_Swatch"/><linearGradient id="New_Gradient_Swatch-8" x1="69.45" y1="475.47" x2="224.34" y2="475.47" gradientTransform="matrix(1, 0, 0, 1, 0, 0)" xlink:href="#New_Gradient_Swatch"/><linearGradient id="New_Gradient_Swatch-9" x1="451.43" y1="645.89" x2="431.9" y2="422.66" gradientTransform="matrix(1, 0, 0, 1, 0, 0)" xlink:href="#New_Gradient_Swatch"/><linearGradient id="New_Gradient_Swatch-10" x1="373.69" y1="535.6" x2="505.32" y2="535.6" gradientTransform="matrix(1, 0, 0, 1, 0, 0)" xlink:href="#New_Gradient_Swatch"/></defs><title>micro_3</title><polygon class="cls-1" points="165.92 188.46 113.39 0.51 0.63 2.22 36.88 158.13 99.11 126.53 165.92 188.46"/><polygon class="cls-2" points="402.14 730.47 474.52 760.98 623.1 733.13 501.32 826.9 402.14 730.47"/><polygon class="cls-3" points="290.89 206.97 304.4 297.03 394.45 276.77 439.48 179.96 326.91 137.18 290.89 206.97"/><polygon class="cls-4" points="70.12 432.61 178.72 367.44 223.74 515.25 111.17 583.46 93.16 475.45 70.12 432.61"/><polygon class="cls-5" points="374.19 427.71 504.77 464.82 482.26 643.19 374.19 553.79 374.19 427.71"/></svg>