<svg id="wave_1" data-name="wave 1" xmlns="http://www.w3.org/2000/svg" xmlns:xlink="http://www.w3.org/1999/xlink" viewBox="0 0 814.37 1310.87"><defs><style>.cls-1,.cls-10,.cls-11,.cls-12,.cls-13,.cls-14,.cls-2,.cls-3,.cls-4,.cls-5,.cls-6,.cls-7,.cls-8,.cls-9{stroke-miterlimit:10;}.cls-1{fill:url(#New_Gradient_Swatch);stroke:url(#New_Gradient_Swatch-2);}.cls-2{fill:url(#New_Gradient_Swatch-3);stroke:url(#New_Gradient_Swatch-4);}.cls-3{fill:url(#New_Gradient_Swatch-5);stroke:url(#New_Gradient_Swatch-6);}.cls-4{fill:url(#New_Gradient_Swatch-7);stroke:url(#New_Gradient_Swatch-8);}.cls-5{fill:url(#New_Gradient_Swatch-9);stroke:url(#New_Gradient_Swatch-10);}.cls-6{fill:url(#New_Gradient_Swatch-11);stroke:url(#New_Gradient_Swatch-12);}.cls-7{fill:url(#New_Gradient_Swatch-13);stroke:url(#New_Gradient_Swatch-14);}.cls-8{fill:url(#New_Gradient_Swatch-15);stroke:url(#New_Gradient_Swatch-16);}.cls-9{fill:url(#New_Gradient_Swatch-17);stroke:url(#New_Gradient_Swatch-18);}.cls-10{fill:url(#New_Gradient_Swatch-19);stroke:url(#New_Gradient_Swatch-20);}.cls-11{fill:url(#New_Gradient_Swatch-21);stroke:url(#New_Gradient_Swatch-22);}.cls-12{fill:url(#New_Gradient_Swatch-23);stroke:url(#New_Gradient_Swatch-24);}.cls-13{fill:url(#New_Gradient_Swatch-25);stroke:url(#New_Gradient_Swatch-26);}.cls-14{fill:url(#New_Gradient_Swatch-27);stroke:url(#New_Gradient_Swatch-28);}</style><linearGradient id="New_Gradient_Swatch" x1="-1407.46" y1="404.14" x2="-1423.77" y2="217.77" gradientTransform="translate(1010.9 -880.32) rotate(-39.68)" gradientUnits="userSpaceOnUse"><stop offset="0" stop-color="#fff" stop-opacity="0.35"/><stop offset="1" stop-color="#fff" stop-opacity="0.35"/></linearGradient><linearGradient id="New_Gradient_Swatch-2" x1="53.45" y1="253.87" x2="238.28" y2="253.87" gradientTransform="matrix(1, 0, 0, 1, 0, 0)" xlink:href="#New_Gradient_Swatch"/><linearGradient id="New_Gradient_Swatch-3" x1="-1269.17" y1="3341.9" x2="-1290.73" y2="3095.53" gradientTransform="translate(2447.63 -2211.15) rotate(16.51)" xlink:href="#New_Gradient_Swatch"/><linearGradient id="New_Gradient_Swatch-4" x1="207.44" y1="493.74" x2="414.28" y2="493.74" gradientTransform="matrix(1, 0, 0, 1, 0, 0)" xlink:href="#New_Gradient_Swatch"/><linearGradient id="New_Gradient_Swatch-5" x1="368" y1="311.86" x2="354.29" y2="155.18" gradientTransform="matrix(1, 0, 0, 1, 0, 0)" xlink:href="#New_Gradient_Swatch"/><linearGradient id="New_Gradient_Swatch-6" x1="284.66" y1="237.99" x2="434.45" y2="237.99" gradientTransform="matrix(1, 0, 0, 1, 0, 0)" xlink:href="#New_Gradient_Swatch"/><linearGradient id="New_Gradient_Swatch-7" x1="539.78" y1="562.52" x2="521.54" y2="354.01" gradientTransform="matrix(1, 0, 0, 1, 0, 0)" xlink:href="#New_Gradient_Swatch"/><linearGradient id="New_Gradient_Swatch-8" x1="453.07" y1="458.47" x2="607.95" y2="458.47" gradientTransform="matrix(1, 0, 0, 1, 0, 0)" xlink:href="#New_Gradient_Swatch"/><linearGradient id="New_Gradient_Swatch-9" x1="4048.29" y1="3402.93" x2="4026.89" y2="3158.38" gradientTransform="translate(5397.98 2097.42) rotate(153.07)" xlink:href="#New_Gradient_Swatch"/><linearGradient id="New_Gradient_Swatch-10" x1="227.89" y1="1001.24" x2="394.77" y2="1001.24" gradientTransform="matrix(1, 0, 0, 1, 0, 0)" xlink:href="#New_Gradient_Swatch"/><linearGradient id="New_Gradient_Swatch-11" x1="77.74" y1="568.88" x2="58.21" y2="345.66" gradientTransform="matrix(1, 0, 0, 1, 0, 0)" xlink:href="#New_Gradient_Swatch"/><linearGradient id="New_Gradient_Swatch-12" x1="0" y1="458.6" x2="131.63" y2="458.6" gradientTransform="matrix(1, 0, 0, 1, 0, 0)" xlink:href="#New_Gradient_Swatch"/><linearGradient id="New_Gradient_Swatch-13" x1="-1658.63" y1="1724.44" x2="-1686.29" y2="1408.23" gradientTransform="translate(1114.71 -1351.77) rotate(-21.93)" xlink:href="#New_Gradient_Swatch"/><linearGradient id="New_Gradient_Swatch-14" x1="3.49" y1="740.98" x2="304.8" y2="740.98" gradientTransform="matrix(1, 0, 0, 1, 0, 0)" xlink:href="#New_Gradient_Swatch"/><linearGradient id="New_Gradient_Swatch-15" x1="604.41" y1="1093.02" x2="585.46" y2="876.43" gradientTransform="matrix(1, 0, 0, 1, 0, 0)" xlink:href="#New_Gradient_Swatch"/><linearGradient id="New_Gradient_Swatch-16" x1="426.51" y1="985.08" x2="755" y2="985.08" gradientTransform="matrix(1, 0, 0, 1, 0, 0)" xlink:href="#New_Gradient_Swatch"/><linearGradient id="New_Gradient_Swatch-17" x1="603.42" y1="700.91" x2="590.28" y2="550.74" gradientTransform="matrix(1, 0, 0, 1, 0, 0)" xlink:href="#New_Gradient_Swatch"/><linearGradient id="New_Gradient_Swatch-18" x1="491.92" y1="617.44" x2="699.5" y2="617.44" gradientTransform="matrix(1, 0, 0, 1, 0, 0)" xlink:href="#New_Gradient_Swatch"/><linearGradient id="New_Gradient_Swatch-19" x1="368.73" y1="1307.51" x2="352.18" y2="1118.37" gradientTransform="matrix(1, 0, 0, 1, 0, 0)" xlink:href="#New_Gradient_Swatch"/><linearGradient id="New_Gradient_Swatch-20" x1="165.2" y1="1222.53" x2="555.65" y2="1222.53" gradientTransform="matrix(1, 0, 0, 1, 0, 0)" xlink:href="#New_Gradient_Swatch"/><linearGradient id="New_Gradient_Swatch-21" x1="-1166.49" y1="2394.06" x2="-1174.78" y2="2299.3" gradientTransform="translate(1256.06 -1452.56) rotate(-14.93)" xlink:href="#New_Gradient_Swatch"/><linearGradient id="New_Gradient_Swatch-22" x1="622.55" y1="1097.2" x2="814.37" y2="1097.2" gradientTransform="matrix(1, 0, 0, 1, 0, 0)" xlink:href="#New_Gradient_Swatch"/><linearGradient id="New_Gradient_Swatch-23" x1="-1166.42" y1="3114.87" x2="-1174.92" y2="3017.71" gradientTransform="matrix(1, 0.12, -0.12, 0.99, 2113.21, -2098.08)" xlink:href="#New_Gradient_Swatch"/><linearGradient id="New_Gradient_Swatch-24" x1="475.16" y1="808.22" x2="700.33" y2="808.22" gradientTransform="matrix(1, 0, 0, 1, 0, 0)" xlink:href="#New_Gradient_Swatch"/><linearGradient id="New_Gradient_Swatch-25" x1="128" y1="172.47" x2="112.29" y2="-7.09" gradientTransform="matrix(1, 0, 0, 1, 0, 0)" xlink:href="#New_Gradient_Swatch"/><linearGradient id="New_Gradient_Swatch-26" x1="25.08" y1="85.32" x2="206.46" y2="85.32" gradientTransform="matrix(1, 0, 0, 1, 0, 0)" xlink:href="#New_Gradient_Swatch"/><linearGradient id="New_Gradient_Swatch-27" x1="371.77" y1="744.48" x2="359.2" y2="600.91" gradientTransform="matrix(1, 0, 0, 1, 0, 0)" xlink:href="#New_Gradient_Swatch"/><linearGradient id="New_Gradient_Swatch-28" x1="300.39" y1="668.07" x2="418.51" y2="668.07" gradientTransform="matrix(1, 0, 0, 1, 0, 0)" xlink:href="#New_Gradient_Swatch"/></defs><title>micro_1</title><polygon class="cls-1" points="54.05 196.6 67.35 311.36 236.63 279.15 54.05 196.6"/><polygon class="cls-2" points="235.45 370.57 311.91 453.26 369.3 410.19 413.53 466.94 289.12 538.09 208.08 617.39 221.64 480.51 256.71 453.33 235.45 370.57"/><polygon class="cls-3" points="285.18 227.87 298.68 317.93 388.74 297.66 433.77 200.85 321.2 158.07 285.18 227.87"/><polygon class="cls-4" points="453.73 415.61 562.33 350.44 607.36 498.25 494.78 566.45 476.77 458.44 453.73 415.61"/><polygon class="cls-5" points="393.82 1094.69 341.28 906.73 228.52 908.45 264.78 1064.35 327.01 1032.75 393.82 1094.69"/><polygon class="cls-6" points="0.5 350.7 131.08 387.82 108.57 566.19 0.5 476.79 0.5 350.7"/><polygon class="cls-7" points="67.52 588.83 180.37 667.18 186.59 783.6 303.39 825.04 134.22 893.15 4.11 648.34 67.52 588.83"/><polygon class="cls-8" points="427.58 890.24 576.17 960.04 672.99 870.48 754.04 984.8 661.73 984.8 528.89 1099.63 427.58 890.24"/><polygon class="cls-9" points="493.73 694.94 597.3 609.47 642.33 622.97 698.61 541.26 671.6 694.94 565.78 681.51 493.73 694.94"/><polygon class="cls-10" points="165.7 1134.69 262.51 1134.69 348.07 1220.24 552.95 1177.46 336.81 1310.3 165.7 1222.49 165.7 1134.69"/><polygon class="cls-11" points="623.76 1137.28 689.61 1087.11 813.32 1035.49 750.8 1159.34 623.76 1137.28"/><polygon class="cls-12" points="477.42 760.42 549.8 790.93 698.37 763.08 576.59 856.86 477.42 760.42"/><polygon class="cls-13" points="25.58 0.5 25.58 64.92 158.1 56.13 158.1 169.84 205.96 145.91 205.96 0.5 25.58 0.5"/><polygon class="cls-14" points="300.94 612.18 418.01 595.77 418.01 740.44 314.44 740.44 300.94 612.18"/></svg>