<svg id="Layer_1" data-name="Layer 1" xmlns="http://www.w3.org/2000/svg" viewBox="0 0 84.62 48.42"><defs><style>.cls-1{fill:#fff;}</style></defs><title>nurdles</title><path class="cls-1" d="M-1008-139.36a5,5,0,0,0-4-2.84,3.22,3.22,0,0,0-2.43-1c-3,0-4,3.09-3,5.17a5,5,0,0,0-.08.79,5,5,0,0,0,5,5,5,5,0,0,0,2.47-.68l0.17,0C-1006.11-132.89-1005.49-137.74-1008-139.36Z" transform="translate(1073.28 143.19)"/><path class="cls-1" d="M-1012.79-106.47a5,5,0,0,0-3.7-4.14,3.17,3.17,0,0,0-2.79-1.46c-2.8,0-3.86,2.69-3.18,4.74a5,5,0,0,0-.27,1.54,4.92,4.92,0,0,0,.06.59c-0.86,2.07.16,5,3.08,5a3.34,3.34,0,0,0,2-.6,5,5,0,0,0,1.13-.17,3.7,3.7,0,0,0,1,.14C-1012.27-100.83-1011.37-104.44-1012.79-106.47Z" transform="translate(1073.28 143.19)"/><path class="cls-1" d="M-993.66-122.31l-0.21,0a3.22,3.22,0,0,0-2.5-1.05c-3.53,0-4.28,4.28-2.29,6.14a5,5,0,0,0,5,4.89,5,5,0,0,0,5-5A5,5,0,0,0-993.66-122.31Z" transform="translate(1073.28 143.19)"/><path class="cls-1" d="M-1067.26-133.34a5,5,0,0,0-1.09.13,3.5,3.5,0,0,0-1.55-.34c-3.54,0-4.29,4.32-2.26,6.17a5,5,0,0,0,4.9,4,5,5,0,0,0,5-5A5,5,0,0,0-1067.26-133.34Z" transform="translate(1073.28 143.19)"/><path class="cls-1" d="M-1053.94-100.63a5,5,0,0,0-5-5,5,5,0,0,0-5,5,5,5,0,0,0,3.68,4.8,3.22,3.22,0,0,0,2.5,1.06,3.34,3.34,0,0,0,3.36-3.79A5,5,0,0,0-1053.94-100.63Z" transform="translate(1073.28 143.19)"/><path class="cls-1" d="M-1030.75-124.64a3.51,3.51,0,0,0-1.52.33,5,5,0,0,0-1.81-.35,5,5,0,0,0-3.17,1.16c-3.67.34-4,5.59-.9,6.73a5,5,0,0,0,4.07,2.11,5,5,0,0,0,4.66-3.23C-1026.31-119.13-1026.74-124.64-1030.75-124.64Z" transform="translate(1073.28 143.19)"/></svg>