<svg id="Layer_1" data-name="Layer 1" xmlns="http://www.w3.org/2000/svg" xmlns:xlink="http://www.w3.org/1999/xlink" viewBox="0 0 464.57 148.74"><defs><style>.cls-1{fill:none;}.cls-2{fill:#ebfbff;}.cls-3{fill:#438900;}.cls-4{clip-path:url(#clip-path);}</style><clipPath id="clip-path" transform="translate(1369.72 -28.01)"><polygon class="cls-1" points="-993.29 28.01 -956.52 64.99 -954.88 108.52 -920.17 120.91 -917.62 161.9 -989.63 152.42 -1045 94.49 -993.29 28.01"/></clipPath></defs><title>plastic_shards</title><polygon class="cls-2" points="376.43 0 413.2 36.98 414.84 80.51 449.55 92.9 452.1 133.89 380.09 124.42 324.73 66.49 376.43 0"/><polygon class="cls-2" points="0 12.56 20.67 138.85 97.08 148.74 97.08 91.21 0 12.56"/><polygon class="cls-2" points="176.54 60.42 262.57 136.75 349.12 107.18 337.43 8.72 240 69.42 176.54 60.42"/><path class="cls-3" d="M-1045.34,120.1a87.72,87.72,0,0,0-8.33-4.66,11.86,11.86,0,0,0-.42-4.67c5.09-3.54,5.66-10.66,2.47-15.67,0.63-.43,1.26-0.87,1.88-1.34,4-3,5.09-9.3,3-13.73a11.18,11.18,0,0,0-8.32-6.21,246.21,246.21,0,0,0,22.23-21.08c4.23-4.55,5.74-11,1.4-16.21-3.61-4.3-12-6-16.21-1.4a235.2,235.2,0,0,1-77.1,55.17c-10.08,4.47-7.61,22,4.08,21.86a64.72,64.72,0,0,0,6.48-.39,12.45,12.45,0,0,0,3.88,8.22c3.72,3.3,8.07,3.58,12.63,2l4.62-1.61a10.59,10.59,0,0,0,1.14,2.36,11.59,11.59,0,0,0,11.73,5.14l1.24-.22a9.81,9.81,0,0,0,6.06,4.9,56.78,56.78,0,0,1,14.33,6.38c5.24,3.32,12.34,2.44,16-2.81C-1039.09,131.21-1040.07,123.44-1045.34,120.1Z" transform="translate(1369.72 -28.01)"/><g class="cls-4"><path class="cls-3" d="M-912.8,143.74c-1.28-.61-2.59-1.17-3.9-1.7a13.81,13.81,0,0,0-2.89-1.7c-0.9-.39-1.81-0.77-2.72-1.13a11.56,11.56,0,0,0-2.45-5.11A70.22,70.22,0,0,0-939,120.84l-1.43-1.21c-4.71-4-7.82-9.08-11.23-14.18a42.43,42.43,0,0,0-4.93-6.08c0.43-.42.85-0.86,1.26-1.34,4-4.64,2-12.84-2.81-16a35.81,35.81,0,0,0-8.47-4.24,13.52,13.52,0,0,0-6.27-6.59c-6.44-3.52-14-1.37-18.54,4.16a18.56,18.56,0,0,0-3.61,7,26.86,26.86,0,0,0-.76,4.61c0,0.65-.06,1.29-0.11,1.94a10.18,10.18,0,0,0-1.77,8,13.45,13.45,0,0,0-3.95,2c-8,5.88-8,18.06-1.8,25.26a18.32,18.32,0,0,0,5,4.07c1.07,5.7,5.29,11.31,8.5,15.88,5.44,7.75,11.61,15.12,21.34,17.24,8.26,1.8,16-1.54,24.26-1.59a50.67,50.67,0,0,1,12.25,1.43l11.55,4.16a11.68,11.68,0,0,0,14.7-7C-903.57,152.08-907.17,146.43-912.8,143.74Z" transform="translate(1369.72 -28.01)"/></g></svg>