<svg id="pollution" xmlns="http://www.w3.org/2000/svg" xmlns:xlink="http://www.w3.org/1999/xlink" viewBox="0 0 1985.33 916.61"><defs><style>.cls-1{fill:url(#linear-gradient);}.cls-2{fill:url(#linear-gradient-2);}.cls-3{fill:url(#linear-gradient-3);}.cls-4{mask:url(#mask);}.cls-5{fill:url(#linear-gradient-4);}.cls-6{mask:url(#mask-2);}.cls-7{fill:url(#linear-gradient-5);}.cls-10,.cls-11,.cls-12,.cls-15,.cls-19,.cls-8,.cls-9{fill:none;}.cls-8{stroke:#685f50;stroke-width:6.83px;}.cls-10,.cls-12,.cls-19,.cls-29,.cls-30,.cls-32,.cls-8{stroke-miterlimit:10;}.cls-9{stroke:#37108c;}.cls-10,.cls-11,.cls-29,.cls-9{stroke-linecap:round;}.cls-11,.cls-9{stroke-linejoin:round;}.cls-11,.cls-12,.cls-9{stroke-width:27.34px;}.cls-10{stroke:#2a3b3f;stroke-width:37.59px;}.cls-11{stroke:#402293;}.cls-12{stroke:#2e3a3d;}.cls-13{fill:#0a3802;}.cls-14{fill:#37108c;}.cls-16{fill:#120933;}.cls-17{fill:#221f44;}.cls-18{fill:#605a75;}.cls-19{stroke:#231c49;stroke-width:2.73px;}.cls-20{fill:#2c2649;}.cls-21{fill:#262247;}.cls-22{fill:#363263;}.cls-23{fill:#23224f;}.cls-24{fill:#29293a;}.cls-25{fill:#333349;}.cls-26{fill:#2c2c51;}.cls-27{fill:#211c3d;}.cls-28{fill:#19224f;}.cls-29,.cls-30,.cls-32{fill:#483d59;stroke-width:1.58px;}.cls-29,.cls-30{stroke:#303056;}.cls-31{fill:#61528e;}.cls-32{stroke:#525272;}</style><linearGradient id="linear-gradient" x1="3973.82" y1="-845.19" x2="2138.26" y2="-845.19" gradientUnits="userSpaceOnUse"><stop offset="0" stop-color="#aa7e52" stop-opacity="0"/><stop offset="0.27" stop-color="#aa7e52"/></linearGradient><linearGradient id="linear-gradient-2" x1="2387.32" y1="-1105.87" x2="4123.59" y2="-1105.87" gradientUnits="userSpaceOnUse"><stop offset="0" stop-color="#aa7e52" stop-opacity="0"/><stop offset="0.1" stop-color="#aa7e52" stop-opacity="0.7"/></linearGradient><linearGradient id="linear-gradient-3" x1="3130.92" y1="-662.52" x2="3130.92" y2="-1491.38" gradientUnits="userSpaceOnUse"><stop offset="0" stop-color="#000941"/><stop offset="1" stop-color="#9977d4"/></linearGradient><mask id="mask" x="0" y="650.21" width="1835.56" height="167.45" maskUnits="userSpaceOnUse"><g transform="translate(-2138.26 1579.14)"><path class="cls-1" d="M2138.26-761.47V-878.63s509.88-113.15,906.45,0,929.11,0,929.11,0v117.16"/></g></mask><linearGradient id="linear-gradient-4" x1="3056.04" y1="-761.47" x2="3056.04" y2="-928.92" gradientUnits="userSpaceOnUse"><stop offset="0" stop-color="#aa7e52" stop-opacity="0"/><stop offset="1" stop-color="#7856ff" stop-opacity="0.3"/></linearGradient><mask id="mask-2" x="249.06" y="350.89" width="1736.27" height="244.74" maskUnits="userSpaceOnUse"><g transform="translate(-2138.26 1579.14)"><path class="cls-2" d="M4123.59-983.5v-211.8c-149.8-74.13-551.52,0-551.52,0s-258.74,60.61-599.18,60.61-585.56-60.61-585.56-60.61v211.8"/></g></mask><linearGradient id="linear-gradient-5" x1="3255.45" y1="-983.5" x2="3255.45" y2="-1228.25" gradientUnits="userSpaceOnUse"><stop offset="0" stop-color="#aa7eff" stop-opacity="0"/><stop offset="1" stop-color="#7f6bff"/></linearGradient></defs><title>seafloor</title><path class="cls-3" d="M3730.06-1401.88c-135.91,14.18-267.39,69.1-405.2,64.79a372.57,372.57,0,0,1-97-15.86c-33.19-10.07-65.1-23.82-97.44-36.25A1732.66,1732.66,0,0,0,2928.23-1453c-70.69-17.65-142.79-31.65-215.57-36.62-64.88-4.43-130-.16-194,11.63-123.51,22.76-242.33,75.38-342.46,151.14q-19.35,14.65-38,30.24v634.14H4123.59v-634.14C4002-1355.44,3864.62-1415.91,3730.06-1401.88Z" transform="translate(-2138.26 1579.14)"/><g class="cls-4"><path class="cls-5" d="M2138.26-761.47V-878.63s509.88-113.15,906.45,0,929.11,0,929.11,0v117.16" transform="translate(-2138.26 1579.14)"/></g><g class="cls-6"><path class="cls-7" d="M4123.59-983.5v-211.8c-149.8-74.13-551.52,0-551.52,0s-258.74,60.61-599.18,60.61-585.56-60.61-585.56-60.61v211.8" transform="translate(-2138.26 1579.14)"/></g><circle class="cls-8" cx="2532.33" cy="-1356.19" r="31.56" transform="translate(1305.53 2947.13) rotate(-80.33)"/><line class="cls-8" x1="360.51" y1="71.15" x2="383.43" y2="193.24"/><line class="cls-8" x1="368.43" y1="241.34" x2="277.38" y2="332.15"/><line class="cls-8" x1="362.95" y1="217.64" x2="256.91" y2="202.34"/><line class="cls-8" x1="413.94" y1="198.44" x2="483.67" y2="117.45"/><line class="cls-8" x1="412.16" y1="248.8" x2="442.75" y2="357.55"/><line class="cls-8" x1="523.25" y1="247.74" x2="425.18" y2="228.25"/><line class="cls-9" x1="765.4" y1="299.85" x2="696.97" y2="361.07"/><line class="cls-10" x1="724.31" y1="257.84" x2="806.49" y2="341.86"/><line class="cls-11" x1="556.6" y1="139.96" x2="602.06" y2="68.98"/><polyline class="cls-9" points="684.64 201.28 630.46 158.27 579.58 120.65 630.46 158.27 563.7 279.32"/><line class="cls-11" x1="728.66" y1="149.76" x2="673.73" y2="221.6"/><path class="cls-12" d="M2661.51-1331.4a152.18,152.18,0,0,1-175.58,124.45c-82.85-14.12-104.88-87-90.76-169.84s59-144.31,141.9-130.19A152.18,152.18,0,0,1,2661.51-1331.4Z" transform="translate(-2138.26 1579.14)"/><path class="cls-13" d="M2952.43-1255.36c-8.32-3.62-17.19-7.16-18.77-16.91-0.7-4.33-1.36-8.71-4-12.36a18.43,18.43,0,0,0-5.32-4.7,14.89,14.89,0,0,0-3.26-1.73l-0.73-.38c-6-9.52-22.76-2.57-18.11,9a15.85,15.85,0,0,0,4.75,6.83c1.66,1.33,5.26,2.11,6.85,3.52-1.21-.74.06,5.32,0.18,6a30.1,30.1,0,0,0,2.6,7.79c5.41,10.88,16.5,16.81,27.19,21.46C2955.81-1231.71,2964.45-1250.13,2952.43-1255.36Z" transform="translate(-2138.26 1579.14)"/><path class="cls-13" d="M2495.52-1210.35c-11.7-1.38-21-3.18-30.41-10.56-7.35-5.76-14.27-9.71-23.85-10.2-12.92-.66-16.49,19.39-3.42,20.05,10.74,0.55,15.61,8.37,24.5,13.17,9.12,4.92,19.61,6.39,29.76,7.59C2505.06-1188.76,2508.55-1208.81,2495.52-1210.35Z" transform="translate(-2138.26 1579.14)"/><path class="cls-13" d="M2608.16-1488c-3.88-8.39-11.6-14.94-21.1-15.66-5.29-.4-11,2.51-11.74,8.32-0.63,5,2.64,11.31,8.32,11.74,0.4,0,2.06.39,2.34,0.36a14.57,14.57,0,0,0,1.34.63,15.63,15.63,0,0,0,1.2,1.06c0.56,0.91,1.33,2.29.61,0.72,2.23,4.82,7.8,8.2,13.11,5.94C2607-1476.9,2610.55-1482.8,2608.16-1488Z" transform="translate(-2138.26 1579.14)"/><path class="cls-13" d="M2771-1407.22c2.5-12.86-17.56-16.27-20.05-3.42-1.73,8.91-4.06,14.73-9.53,21.88a42.22,42.22,0,0,0-7.07,15.45c-2.28,8.88-1.82,19.48-7.26,27.29-4.3,6.16-10.58,10.06-14.48,16.79s-5.86,14.55-9.39,21.58c-2.52,5-7.86,10.36-8,16.27-0.32,10.6,9.86,13.79,18.46,13.88,9.78,0.1,11.05-11.23,5.62-17a66.76,66.76,0,0,0,4.46-9.36c2-4.77,3.48-10,6-14.53,5.95-10.6,15.75-15.67,19.67-27.64,4.16-12.71,3.34-23.85,12.22-34.67C2769.18-1389.86,2768.8-1395.79,2771-1407.22Z" transform="translate(-2138.26 1579.14)"/><path class="cls-14" d="M2658.72-1152.23q23.94,2.89,50.64,5.54l-116.87-159.65,215,97.29L2779-1140.92q19.4,1.31,39.76,2.35l30.43-72.83a18.8,18.8,0,0,0-9.59-24.37l-296.78-134.3a18.8,18.8,0,0,0-22.34,5.28,18.8,18.8,0,0,0-.57,22.95Z" transform="translate(-2138.26 1579.14)"/><path class="cls-13" d="M2736.45-1506.94a10.06,10.06,0,0,0-9.12.36,10.79,10.79,0,0,0-3,.6,25.25,25.25,0,0,0-11.57,8.36,11,11,0,0,0-2.25,7.37l-0.93,1.23c-3,4-3.21,9.6.38,13.38,3.77,4,8.7,3.94,13.3,1.46a43.61,43.61,0,0,0,18.06-19.23A10.32,10.32,0,0,0,2736.45-1506.94Z" transform="translate(-2138.26 1579.14)"/><path class="cls-13" d="M2839.37-1217.72c-9-.1-13,5.75-16.18,12.57-3.55,3.2-5.44,8.43-7.2,13.11-0.21.56-.39,1.14-0.6,1.7-5.95,8.33-14.13,16.18-20.14,23.47s0.13,17,8.81,16.66c7.55-.26,15.24-1.82,20.44-7.35a9.55,9.55,0,0,0,8.36-5.53,94.16,94.16,0,0,0,6.85-19.81,71.15,71.15,0,0,1,4.41-7.88,10.44,10.44,0,0,0,1.64-7.63C2853.7-1202.32,2850.65-1217.59,2839.37-1217.72Z" transform="translate(-2138.26 1579.14)"/><path class="cls-15" d="M3349.13-945.53c-0.22.63-.43,1.26-0.66,1.89C3348.7-944.27,3348.91-944.9,3349.13-945.53Z" transform="translate(-2138.26 1579.14)"/><path class="cls-15" d="M3349.8-947.45c13.65-40.27,13.94-77.64-.68-103.65C3363.74-1025.06,3363.42-987.67,3349.8-947.45Z" transform="translate(-2138.26 1579.14)"/><path class="cls-15" d="M3133.61-909.32h0c-4.68,20.82-2.06,40.24,8.44,53.66h0C3131.55-869.08,3128.93-888.49,3133.61-909.32Z" transform="translate(-2138.26 1579.14)"/><path class="cls-15" d="M3191.07-989.66a133.27,133.27,0,0,0-13.53,10.25h0A133.25,133.25,0,0,1,3191.07-989.66Z" transform="translate(-2138.26 1579.14)"/><path class="cls-15" d="M3257.23-884c28.23-32.54,39.47-70.08,28.66-95.55-25.45-.18-55.79,14.83-79.36,41.85l4.48,6.4a6.26,6.26,0,0,1-1,8.32l-1.16,1a6.26,6.26,0,0,1-8.24,0l-3.73-3.29q-3.59,5.15-6.61,10.43l5.59,2.14a6.26,6.26,0,0,1,3.9,7.06l-2.62,13.25a6.26,6.26,0,0,1-8.36,4.64l-9-3.42c-4.72,14.76-5.93,29.15-3.42,41.62q14.45,2.37,29,4.44C3223.15-852.38,3241.49-865.87,3257.23-884Z" transform="translate(-2138.26 1579.14)"/><path class="cls-15" d="M3158.56-959.64a138.72,138.72,0,0,0-15.38,24h0a138.72,138.72,0,0,1,15.38-24h0Z" transform="translate(-2138.26 1579.14)"/><path class="cls-15" d="M3276.52-993.46l0.68,0.7Z" transform="translate(-2138.26 1579.14)"/><path class="cls-15" d="M3280.41-989c0.21,0.28.43,0.55,0.64,0.83C3280.85-988.46,3280.62-988.73,3280.41-989Z" transform="translate(-2138.26 1579.14)"/><path class="cls-15" d="M3282.61-985.86l0.32,0.53Z" transform="translate(-2138.26 1579.14)"/><path class="cls-15" d="M3278.48-991.36c0.26,0.3.53,0.6,0.79,0.91C3279-990.76,3278.75-991.06,3278.48-991.36Z" transform="translate(-2138.26 1579.14)"/><path class="cls-16" d="M3433.56-984.13a20.83,20.83,0,0,0-7.69-13.4L3334.62-1069q1.09,0.95,2.13,1.94l0.59,0.59c0.49,0.47,1,.95,1.45,1.43,0.26,0.27.5,0.54,0.75,0.82,0.4,0.43.8,0.85,1.19,1.29,0.25,0.28.48,0.57,0.72,0.85,0.38,0.44.76,0.88,1.13,1.33,0.22,0.27.43,0.56,0.65,0.83,0.37,0.47.75,0.94,1.11,1.43,0.18,0.24.34,0.48,0.51,0.72,0.39,0.54.78,1.07,1.15,1.62l0.36,0.55c0.41,0.62.82,1.23,1.21,1.86l0.2,0.34c0.43,0.71.86,1.42,1.27,2.15l0.08,0.14c14.62,26,14.34,63.38.68,103.65-0.22.64-.45,1.28-0.67,1.92s-0.43,1.26-.66,1.89c-11.23,31.39-30.46,64.32-56.9,94.79q-5.59,6.45-11.39,12.48c37.35,3.49,74.77,5.72,111.81,6.92C3427.57-884.9,3439.45-942.09,3433.56-984.13Z" transform="translate(-2138.26 1579.14)"/><path class="cls-17" d="M3133.61-909.32a6.24,6.24,0,0,1-1.22-1.72L3104-971.69c-23.26,32.21-38.75,65.92-45.65,96.86,27.36,7.4,55.33,13.76,83.68,19.18C3131.55-869.08,3128.93-888.5,3133.61-909.32Z" transform="translate(-2138.26 1579.14)"/><path class="cls-17" d="M3158.56-959.64a6.25,6.25,0,0,1-.64-1.83L3147.51-1021a337,337,0,0,0-24.76,25.67c-1.62,1.86-3.19,3.74-4.76,5.62l25.19,54A138.72,138.72,0,0,1,3158.56-959.64Z" transform="translate(-2138.26 1579.14)"/><path class="cls-17" d="M3348.47-943.64c0.23-.63.44-1.26,0.66-1.89s0.45-1.28.67-1.92c13.62-40.22,13.95-77.61-.68-103.65l-0.08-.14c-0.41-.73-0.84-1.44-1.27-2.15l-0.2-.34c-0.39-.63-0.8-1.25-1.21-1.86l-0.36-.55c-0.37-.55-0.76-1.08-1.15-1.62-0.17-.24-0.34-0.48-0.51-0.72-0.36-.48-0.74-1-1.11-1.43-0.22-.28-0.42-0.56-0.65-0.83-0.37-.45-0.75-0.89-1.13-1.33-0.24-.28-0.47-0.57-0.72-0.85-0.39-.44-0.79-0.86-1.19-1.29-0.25-.27-0.5-0.55-0.75-0.82-0.47-.49-1-1-1.45-1.43l-0.59-.59q-1-1-2.13-1.94c-37.51-32.54-106.23-17.55-168.32,31.8l10.87,56.57a6.26,6.26,0,0,0,.37,1.22,133.27,133.27,0,0,1,13.53-10.25c30.07-19.8,63.22-23.24,83.29-5.83,0.75,0.65,1.46,1.33,2.16,2l0.68,0.7q0.66,0.69,1.29,1.4c0.27,0.3.53,0.6,0.79,0.91,0.39,0.47.77,1,1.14,1.44,0.21,0.28.43,0.55,0.64,0.83,0.55,0.75,1.06,1.53,1.56,2.32l0.32,0.53a47.56,47.56,0,0,1,3,5.76h-0.08c10.81,25.47-.43,63-28.66,95.55-15.74,18.14-34.08,31.63-51.93,38.86q37.26,5.31,74.88,8.78,5.78-6,11.39-12.48C3318-879.32,3337.24-912.25,3348.47-943.64Z" transform="translate(-2138.26 1579.14)"/><path class="cls-16" d="M3178.19-978.22l28.34,40.51c23.57-27,53.91-42,79.36-41.85H3286a47.56,47.56,0,0,0-3-5.76l-0.32-.53c-0.5-.79-1-1.56-1.56-2.32-0.21-.28-0.43-0.55-0.64-0.83-0.37-.49-0.75-1-1.14-1.44-0.26-.31-0.52-0.61-0.79-0.91q-0.63-.71-1.29-1.4l-0.68-.7c-0.7-.69-1.41-1.37-2.16-2-20.06-17.41-53.22-14-83.29,5.83a133.25,133.25,0,0,0-13.53,10.25A6.26,6.26,0,0,0,3178.19-978.22Z" transform="translate(-2138.26 1579.14)"/><path class="cls-16" d="M3179.71-891.21l-43.87-16.63a6.24,6.24,0,0,1-2.23-1.48c-4.68,20.82-2.06,40.24,8.44,53.66q17,3.26,34.25,6.07C3173.79-862.06,3175-876.45,3179.71-891.21Z" transform="translate(-2138.26 1579.14)"/><path class="cls-16" d="M3158.56-959.64a138.72,138.72,0,0,0-15.38,24l0.51,1.09a6.26,6.26,0,0,0,3.44,3.2l43.1,16.5q3-5.27,6.61-10.43l-36.89-32.55A6.25,6.25,0,0,1,3158.56-959.64Z" transform="translate(-2138.26 1579.14)"/><path class="cls-18" d="M3133.61-909.32h0a6.24,6.24,0,0,0,2.23,1.48l43.87,16.63,9,3.42a6.26,6.26,0,0,0,8.36-4.64l2.62-13.25a6.26,6.26,0,0,0-3.9-7.06l-5.59-2.14-43.1-16.5a6.26,6.26,0,0,1-3.44-3.2l-0.51-1.09h0l-25.19-54-1.54-3.31a6.26,6.26,0,0,0-9.08-2.61l-6.59,4.27a6.26,6.26,0,0,0-2.27,7.91l5.5,11.76L3132.39-911A6.24,6.24,0,0,0,3133.61-909.32Z" transform="translate(-2138.26 1579.14)"/><path class="cls-18" d="M3158.56-959.64h0a6.25,6.25,0,0,0,1.39,1.78l36.89,32.55,3.73,3.29a6.26,6.26,0,0,0,8.24,0l1.16-1a6.26,6.26,0,0,0,1-8.32l-4.48-6.4-28.34-40.51a6.26,6.26,0,0,1-.65-1.19h0a6.26,6.26,0,0,1-.37-1.22l-10.87-56.57-1.38-7.19a6.26,6.26,0,0,0-10.35-3.46L3147-1041a6.26,6.26,0,0,0-2,5.72l2.49,14.25,10.42,59.53A6.25,6.25,0,0,0,3158.56-959.64Z" transform="translate(-2138.26 1579.14)"/><path class="cls-19" d="M3319-832.58c34.36-43.87,59.59-107.91,60.28-201.4" transform="translate(-2138.26 1579.14)"/><path class="cls-19" d="M3353.92-831.05c27.07-42.83,48.07-100.89,55.22-179.58" transform="translate(-2138.26 1579.14)"/><path class="cls-13" d="M3357.64-1002.26a191.47,191.47,0,0,0-6.37-50,13.1,13.1,0,0,0-15.87-9,11.91,11.91,0,0,0-8.56,8.34c-3.68,2.35-6.42,6.31-5.87,10.68,1.1,8.65,4.4,15.55,7.75,23.5a34.39,34.39,0,0,1,1.45,4.25,186.67,186.67,0,0,1,.34,26.92,10.32,10.32,0,0,0,.27,3.05,167,167,0,0,1-6,29c-4.18,13.92,16.52,22.83,23.58,9.94,8.33-15.22,9.34-32.31,9.32-49.31C3357.72-997.34,3357.7-999.8,3357.64-1002.26Z" transform="translate(-2138.26 1579.14)"/><path class="cls-13" d="M3105.31-927c-0.91-5.5-7.21-9.47-12.44-9.47a13.24,13.24,0,0,0-12.44,9.47,247.85,247.85,0,0,0-8.56,40.29c-0.93,6.92,6.59,12.9,12.9,12.9,7.74,0,12-6,12.9-12.9q0.28-2.05.61-4.1a17,17,0,0,0,4.48-6.44C3106.67-906.83,3107-916.84,3105.31-927Z" transform="translate(-2138.26 1579.14)"/><path class="cls-13" d="M3171.3-1030.89c-1.46-7.12-12.86-7.08-14.35,0l-1,4.53a7.24,7.24,0,0,0,2.31,7.17,152.73,152.73,0,0,1,1.56,16.26,8.4,8.4,0,0,0-.11,1.24l-0.11,16.7c-0.06,9.66,14.24,9.47,14.88,0A170.61,170.61,0,0,0,3171.3-1030.89Z" transform="translate(-2138.26 1579.14)"/><path class="cls-13" d="M3190.77-901.2c-4.45-2.45-9-3-14-3.15a26.31,26.31,0,0,1-5.28-.27c-1.07-.24-2.68-1.26-2.68-1-0.28-9.56-15.16-9.6-14.88,0,0.21,7,4.66,12.05,11.06,14.53a27.29,27.29,0,0,0,8.65,1.61c3.2,0.16,6.75-.44,9.66,1.16C3191.65-883.73,3199.17-896.58,3190.77-901.2Z" transform="translate(-2138.26 1579.14)"/><path class="cls-13" d="M3440-952.63c-1.93-9.38-16.27-5.41-14.35,4,1.72,8.4-2.65,16.87-5.45,24.58s-4.27,15.87-5.94,24c-1.54,7.53-3.38,15.23-8.27,21.37s-11,10.85-14.9,17.74c-4.73,8.34,8.12,15.85,12.85,7.51,4.15-7.33,11.33-12.34,16.05-19.31,5-7.39,7.22-16.31,8.93-25a162.16,162.16,0,0,1,6.87-25.75C3439.4-933.07,3442.13-942.37,3440-952.63Z" transform="translate(-2138.26 1579.14)"/><path class="cls-20" d="M3658-1232.29c-16.06-14.23-26.17-28.82-29.85-42.65l3.2-10.89c0.24,15.51,10.51,32.89,29.8,50a201.35,201.35,0,0,0,31.63,22.62c68.1-8.32,155.78-16.16,237.89-15l25.85-88.07c-10.56,9.65-27,16.46-48.16,19.75-32.44,5-72.45,1.3-112.67-10.51s-75.9-30.3-100.47-52.06c-16.06-14.23-26.17-28.82-29.85-42.65l3.2-10.89c0.24,15.51,10.51,32.89,29.8,50,24.06,21.31,59.1,39.45,98.66,51.06s78.84,15.3,110.6,10.37c25.5-4,43.52-13,52.1-26l1.34-4.55,36.39-123.94c-11.1,37.79-85.27,49.3-165.66,25.7s-136.58-73.37-125.48-111.17l-36.39,123.94-35.32,120.31h0l-28.11,95.76c19.7-3.12,46.84-7.14,78.67-11.12A200.12,200.12,0,0,1,3658-1232.29Z" transform="translate(-2138.26 1579.14)"/><path class="cls-21" d="M3831.75-1430c80.4,23.6,154.57,12.1,165.66-25.7s-45.09-87.57-125.48-111.17-154.57-12.1-165.66,25.7S3751.35-1453.61,3831.75-1430Zm-82.36-103.91c3.5-11.92,21.39-17.16,40-11.71s30.78,19.53,27.28,31.45-21.39,17.16-40,11.71S3745.89-1522,3749.39-1533.92Z" transform="translate(-2138.26 1579.14)"/><path class="cls-22" d="M3776.68-1502.47c18.57,5.45,36.46.21,40-11.71s-8.72-26-27.28-31.45-36.46-.21-40,11.71S3758.11-1507.92,3776.68-1502.47Zm-15.6-28c1.66-5.66,10.16-8.16,19-5.57s14.63,9.28,13,14.95-10.16,8.16-19,5.57S3759.41-1524.83,3761.07-1530.49Z" transform="translate(-2138.26 1579.14)"/><ellipse class="cls-23" cx="3777.05" cy="-1525.8" rx="10.69" ry="16.65" transform="matrix(0.28, -0.96, 0.96, 0.28, 2038.87, 4107.23)"/><path class="cls-21" d="M3907.6-1301.23c-31.76,4.93-71,1.24-110.6-10.37s-74.6-29.75-98.66-51.06c-19.29-17.09-29.56-34.47-29.8-50l-3.2,10.89c3.67,13.83,13.78,28.42,29.85,42.65,24.57,21.77,60.25,40.26,100.47,52.06s80.23,15.54,112.67,10.51c21.21-3.29,37.6-10.1,48.16-19.75l0.12-.11,3.24-11-0.16.22C3951.12-1314.28,3933.09-1305.19,3907.6-1301.23Z" transform="translate(-2138.26 1579.14)"/><path class="cls-21" d="M3631.3-1285.83l-3.2,10.89c3.67,13.83,13.78,28.42,29.85,42.65a200.12,200.12,0,0,0,27.16,20l7.62-.94a201.35,201.35,0,0,1-31.63-22.62C3641.81-1252.94,3631.54-1270.32,3631.3-1285.83Z" transform="translate(-2138.26 1579.14)"/><path class="cls-13" d="M3967.6-1413.8c-11.86-6.26-24-2.37-31.61,8-0.66.68-1.26,1.43-1.92,2.11-1.32,1.37-3,2.52-4.35,3.86-0.95.59-1.88,1.2-2.85,1.76-0.8.46-1.62,0.89-2.44,1.31-1.9.3-4.21,1.54-6,2-0.85.21-1.72,0.36-2.58,0.56a91.5,91.5,0,0,1-14.72-.72,70.2,70.2,0,0,0-17.75-.13c-7.57,1-14.11,3.6-21,7-1.28.64-2.57,1.27-3.85,1.93a4.25,4.25,0,0,0-1.22.75c-1.84.55-4.29,0.81-5.49,1.06l-0.4.08c-0.91,0-2.21.37-2.92,0.43-2.91.27-5.83,0.43-8.75,0.6-11.66.68-21.31,8.36-22.9,20.22a23.31,23.31,0,0,0,16.7,25.58,284.86,284.86,0,0,0,42.71,8.16q9.49,1.14,19.05,1.53l3.1,0.12a25,25,0,0,0,9,6.45c7.14,3,13.89,2.23,20.75-1.18,0.85-.42,1.74-0.83,2.63-1.24,7.33,1.09,15.22-.89,20.51-6.23a55.63,55.63,0,0,0,11.52-18,22.24,22.24,0,0,0,10.68-13.71,28.66,28.66,0,0,0-.38-16.66q1.45-1.82,2.8-3.72C3983.05-1391.87,3978.05-1408.27,3967.6-1413.8Zm-43.18,17-0.23.12C3921.08-1395.09,3922.66-1396.44,3924.42-1396.78Z" transform="translate(-2138.26 1579.14)"/><path class="cls-13" d="M3702.94-1255.68a64.57,64.57,0,0,0-8.38-18.57,78.23,78.23,0,0,0-7.68-9.68c-0.26-.27-0.53-0.52-0.8-0.78,0.52-1.36,1.08-2.71,1.62-4.06l7.55-18.89c2.1-5.26.38-13.3-2.35-18-2.83-4.84-8.38-9.45-13.93-10.72-13.47-3.07-23.82,4.13-28.68,16.29-5.86,14.67-15.29,31-11.16,47.3,2.26,8.94,8,14.91,14.22,21.23,0.25,0.25.64,0.58,1,1l0.35,0.52q0.68,1,1.28,2t1.15,2.11c0.19,0.39.32,0.64,0.39,0.76,0.17,0.75.3,1.46,0.42,1.87,3.36,11.72,16.61,20.19,28.68,16.29C3698.57-1230.85,3706.54-1243.12,3702.94-1255.68Zm-46.47,7.84a5.19,5.19,0,0,1,1,2.42C3657.33-1245.84,3657-1246.63,3656.47-1247.84Z" transform="translate(-2138.26 1579.14)"/><path class="cls-13" d="M3967.76-1466.3c-0.55-9.46-10.25-18.1-23.32-17.84-5.12.1-10.24,0-15.36-.25-1.5-.09-3-0.21-4.5-0.31-3.39-.22-0.33.36,0.64,0.17-1.42.35-6.74-.94-7.85-1.11q-7.53-1.16-14.88-2.91-3.45-.83-6.85-1.78c-1.22-.35-2.43-0.72-3.65-1.08l-0.81-.28c-11.1-3.81-25.59-2.74-31.9,6.4-5.38,7.79-3.52,20.33,8.36,24.41a222.05,222.05,0,0,0,76.78,12.41C3956.63-1448.7,3968.33-1456.49,3967.76-1466.3Z" transform="translate(-2138.26 1579.14)"/><path class="cls-24" d="M2685.94-948.21h0l0,0.12Z" transform="translate(-2138.26 1579.14)"/><path class="cls-24" d="M2668.31-928.56l6.59,0.12a85.12,85.12,0,0,0,10.72-19C2682-938.82,2675.69-932.78,2668.31-928.56Z" transform="translate(-2138.26 1579.14)"/><path class="cls-24" d="M2465.32-965.07c-62.83-27.92-121.54-87.31-127.52-93.46L2295-1072.1s35.37,102.91-26.1,152c0,0-16.57,9.3-24.48,22.41,80.17-12.45,198.87-27,331.85-30.4C2546.79-935.56,2503.72-948,2465.32-965.07Z" transform="translate(-2138.26 1579.14)"/><path class="cls-25" d="M2465.32-965.07c38.4,17.06,81.46,29.51,110.92,37,30.05-.77,60.83-1,92.07-0.46,7.38-4.22,13.65-10.25,17.3-18.85l0.28-.68,0-.12c0.39-1,.76-2,1.08-3l12.84-41.65c-12.37,40.13-81.36,54.49-154.09,32.07S2424.1-1034,2436.47-1074.09c11-35.7,66.82-51,130.22-38.16-40.47-9.62-121.69-25.67-158.1-9.85-41.07,17.85-110.88-9.92-133.52-19.92a7.15,7.15,0,0,0-9.72,4.44L2251.6-1093a7.16,7.16,0,0,0,4.73,8.95l81,25,0.51,0.53C2343.78-1052.38,2402.49-993,2465.32-965.07Z" transform="translate(-2138.26 1579.14)"/><path class="cls-26" d="M2436.47-1074.09C2424.1-1034,2473-983.25,2545.77-960.83s141.72,8.06,154.09-32.07-36.56-90.84-109.29-113.26c-8-2.47-16-4.5-23.87-6.09C2503.29-1125.09,2447.48-1109.79,2436.47-1074.09Zm145.49-.76c48.32,14.89,81.74,45.61,74.65,68.61s-52,29.57-100.32,14.68-81.74-45.61-74.65-68.61S2533.64-1089.74,2582-1074.84Z" transform="translate(-2138.26 1579.14)"/><ellipse class="cls-27" cx="2569.12" cy="-1033.2" rx="43.58" ry="91.55" transform="translate(661.43 3305.41) rotate(-72.87)"/><path class="cls-13" d="M2387.91-946.32a104.58,104.58,0,0,0-17.31-13,18.45,18.45,0,0,0-3.53-5.41s-1.3-1.53-1.86-2.13-1.39-2.11-1.51-2.32-0.84-1.54-1.26-2.31c-0.23-.7-1-2.72-1-2.71-2-6.49-3.59-12.81-8.88-17.56-0.44-.39-0.88-0.75-1.34-1.09a82,82,0,0,0-.81-23.57c-1.62-9-13-14.84-21.36-12.13-9.61,3.11-13.87,11.76-12.13,21.36q0.59,3.21.15,0.88l0.12,1.84c0,1.85.07,3.69,0,5.54,0,0.19-.47,3.73-0.39,3.56q-0.43,2.35-1,4.67a100.56,100.56,0,0,1-3.32,10.65c-0.57,1.56-1.19,3.1-1.82,4.64-0.24.52-1.27,2.91-1.4,3.21-3.11,7-7.34,14.15-9.31,21.53-3,11.16,2,23.89,13.76,27.28,9.64,2.77,17.74-2.6,25.74-7.18a19,19,0,0,0,12,4.86l0.23,0.18c6.82,7.6,19,11.13,28.65,8.27C2392.32-920.89,2397.76-937.22,2387.91-946.32Z" transform="translate(-2138.26 1579.14)"/><path class="cls-13" d="M2602.57-1068.7a315.14,315.14,0,0,0-75.45-17.57c-6.55-.71-8.38,7.79-4.91,11.86a15.69,15.69,0,0,0,3.34,2.93c1.59,2.55,4.7,3.42,7.74,3l0.5-.06a30,30,0,0,0,5.81.16c8.73,1.62,15,9.34,16.3,18.46,0.47,3.35,4.48,5.49,7.79,5.06a7.5,7.5,0,0,0,1.09,2,8.47,8.47,0,0,0,7.67,3.13c1.34,4.58,2,10.11,2.39,11.66,1.86,7.69,13.58,5.92,13.64-1.85,0-4.18-1.06-8.17-1.49-12.27,2.13-1.16,4.22-2.42,6.24-3.44a7.71,7.71,0,0,0,1-.61c8.38,1.09,13-7.87,13.45-15.72C2607.86-1065.23,2605.34-1067.67,2602.57-1068.7Z" transform="translate(-2138.26 1579.14)"/><path class="cls-13" d="M2682.63-977.67c-4-3.12-9.36-.83-13.57.74a78.6,78.6,0,0,0-13.64,6.64c-5.58,3.43-9.37,4-15.88,3.41-4.89-.42-7.07,3.57-6.59,7.39l-2.75.8c-4.12,1.22-8.3,2.67-11.19,6-6.14,7.14-2,17.34,5.93,20.9,9.54,4.27,19.82-2.19,28.38-6,3.61-1.63,7.89-4.7,11.82-3.34,4.34,1.5,7.93,3.2,12.46.94,8.3-4.14,8.08-15.12,8.19-23C2685.87-967.91,2686.85-974.41,2682.63-977.67Zm-10.82,15.91c-0.33-.34-0.67-0.66-1-1l1.09-.47c0,0.5,0,1,0,1.49Z" transform="translate(-2138.26 1579.14)"/><path class="cls-13" d="M2287.7-1085.08c-3.16-3-6.69-4-10.63-4.45,0.55-2.44.12-5.09-.28-7.68-0.8-5.21-1.67-10.41-2.51-15.61a5.73,5.73,0,0,0-3-4q1.64-3.53,3.51-7c4.29-7.85-7.7-14.87-12-7a134.66,134.66,0,0,0-16.48,61.38c-0.18,7.14,9.37,9.12,12.94,3.51a14.41,14.41,0,0,1,11.05-6.78c5.85-.46,10.29,1.1,15.95-1.48C2290.35-1076,2290.71-1082.25,2287.7-1085.08Z" transform="translate(-2138.26 1579.14)"/><path class="cls-28" d="M3875.11-915.34v-8.43a0.94,0.94,0,0,0-.65-0.84l-6.56-2.64a0.89,0.89,0,0,1,.24-1.75l25.49-5.17a1.1,1.1,0,0,1,1.46,1.05l-0.76,4a0.87,0.87,0,0,0,.49.91l11,6.12a1.39,1.39,0,0,0,.66.17c23.4,0.1,42.31,9.53,42.31,21.14s-19.1,21.14-42.67,21.14-42.67-9.47-42.67-21.14c0-5.63,4.44-10.74,11.68-14.53" transform="translate(-2138.26 1579.14)"/><path class="cls-28" d="M3960.39-938.08c-2.24,7-13.58,10.65-25.33,8.26s-19.47-10-17.24-16.93,13.58-10.65,25.33-8.26S3962.63-945,3960.39-938.08Z" transform="translate(-2138.26 1579.14)"/><line class="cls-29" x1="1748.44" y1="667.62" x2="1746.91" y2="685.21"/><line class="cls-29" x1="1758.92" y1="666.05" x2="1776.63" y2="685.21"/><line class="cls-29" x1="1769.54" y1="663.62" x2="1795.89" y2="673.61"/><path class="cls-30" d="M3939.6-943.81l11-3.62c0.06,0,.13,0,0.07.06l-9.68,4.45s0,0,0,.06l12.54,5.34c0.06,0,0,.08-0.05.06l-13.41-4.61a0.07,0.07,0,0,0-.08,0l-3.23,7s-0.12,0-.11,0l1.37-7.35a0.05,0.05,0,0,0-.06,0l-14.54-1.09c-0.07,0-.08-0.07,0-0.07l14.22,0.11s0.06,0,0,0l-5.81-7.6s0.06-.07.1,0l7.5,7.4A0.09,0.09,0,0,0,3939.6-943.81Z" transform="translate(-2138.26 1579.14)"/><path class="cls-31" d="M2320.49-1239.44c0.36,7.3-9,14.75-20.81,16.64s-21.74-2.49-22.09-9.78,9-14.75,20.81-16.64S2320.14-1246.73,2320.49-1239.44Z" transform="translate(-2138.26 1579.14)"/><path class="cls-32" d="M2298.69-1237.44l7.26-9.08s0.13,0,.09,0l-5.67,9s0,0,0,0l13.42-2.39c0.07,0,.06.06,0,0.08l-13.75,3.49a0.07,0.07,0,0,0-.06.06l1.11,7.6s-0.09.08-.11,0l-2.88-6.9a0.05,0.05,0,0,0-.07,0l-12.77,7.05c-0.06,0-.11,0,0-0.05l12-7.69s0-.05,0-0.06l-9-3.18c-0.05,0,0-.09.07-0.08l10.33,2.08A0.09,0.09,0,0,0,2298.69-1237.44Z" transform="translate(-2138.26 1579.14)"/></svg>