<svg id="wave_3" data-name="wave 3" xmlns="http://www.w3.org/2000/svg" xmlns:xlink="http://www.w3.org/1999/xlink" viewBox="0 0 2020.36 591"><defs><style>.cls-1{fill:url(#linear-gradient);}</style><linearGradient id="linear-gradient" x1="999.85" y1="1189.96" x2="958.8" y2="720.79" gradientUnits="userSpaceOnUse"><stop offset="0" stop-color="#368cf5"/><stop offset="0.51" stop-color="#388ef6"/><stop offset="0.73" stop-color="#3e95f8"/><stop offset="0.89" stop-color="#49a2fb"/><stop offset="1" stop-color="#55afff"/></linearGradient></defs><title>wave3</title><path class="cls-1" d="M1970.89,719.25c-14.92-51.54-60.7-76.59-104.78-77.22-39.81-.57-75.41,19.2-109.43,39.77-25.86,15.63-52.11,32.46-82.27,33.43-36.5,1.17-80.63-12.45-121.09-10-41.24,2.53-77.23,21.8-113.71,41.25-15.18,8.09-30.55,16-46.76,21.09a10.14,10.14,0,0,0-2.59,1l-3.42.38c-3.91.46-7.74,0.9-11.69,1.13-6.41.36-13.23-1.3-22.92-3.94-40.89-11.15-76.93-28.27-119.53-29.45-44.42-1.23-87.51,12.77-125.89,36.86-4.63,2.91-13,11.06-17.43,11.43l-2.88-.78c-0.66-.44-6.69-2.86-7.91-3.45-3.55-1.69-7.06-3.46-10.62-5.13-11.93-5.6-24.41-11-37-14.08-37.43-9.27-76.08-1.23-111.41,12.31-31.82,12.18-61.94,29.47-94.19,40.31-10.9,3.66-20.33,6.63-37.5,6.24,0.7-.1-5.77-0.66-6.27-0.76-4.22-.84-8.41-1.63-12.59-2.67-11.56-2.85-22.9-6.9-34.21-10.88-39.84-14-79.06-21.41-120.49-16.38-38.11,4.63-82.59,19.1-115,26.64-43.88,10.21-75.13,9.79-117.72-2.2-49.5-13.94-96.83-26.78-147.17-13.75-40.9,10.59-75.55,37.16-114.82,52.49-3.14,1.23-6.34,2.17-9.48,3.36-1.35.51-2.28,0.9-2.93,1.19-0.63,0-1.52.09-2.83,0.24a199.4,199.4,0,0,1-20.59,1.81c-0.8-.24-5.55-0.8-7.23-1.1-2.07-.4-4.11-0.94-6.14-1.53-2-1-4-2.1-5.94-3.29-3.91-4.18-4.48-4.51-1.73-1.05l0.36,0.23-0.21-.12-0.14-.09,0.9,1.13c-0.31-.4-0.64-0.77-0.95-1.16-2.52-1.63-2.52-1.63,0,0C43.42,828.27,13.83,818-10.86,837.87c-15.8,12.69-25.29,39.2-21.5,62.42-4.66,9.57-6.91,21.29-5.54,34.87l12.61,125.22c4,40,2.57,89.87,22.84,124.81,22,37.85,58.39,47.25,95.09,47.75,35.87,0.49,71.83-1.44,107.67-2.19,142.67-3,285.6-3.68,428.1-10.45,71.64-3.4,143.21-9.17,214.12-20.31,68.48-10.76,135.79-28.72,204.32-39.12,69.5-10.54,139.65-6.94,209.55-11.91,69.74-5,134-27.42,201.86-37.89,76.42-11.8,153.89-14,231-17.62l241.44-11.29c21.18-1,46-23.37,47.43-49.21,3-52.72,4.44-105.64,3.77-158.56q-0.44-34.57-2.06-69.13C1978.53,777,1978.77,746.49,1970.89,719.25Z" transform="translate(38.29 -642.01)"/></svg>